<?xml version="1.0" encoding="UTF-8" standalone="no"?>
<svg
   xmlns:dc="http://purl.org/dc/elements/1.1/"
   xmlns:cc="http://creativecommons.org/ns#"
   xmlns:rdf="http://www.w3.org/1999/02/22-rdf-syntax-ns#"
   xmlns:svg="http://www.w3.org/2000/svg"
   xmlns="http://www.w3.org/2000/svg"
   xmlns:sodipodi="http://sodipodi.sourceforge.net/DTD/sodipodi-0.dtd"
   xmlns:inkscape="http://www.inkscape.org/namespaces/inkscape"
   width="125.79301mm"
   height="107.45599mm"
   viewBox="0 0 125.79301 107.45599"
   version="1.1"
   id="svg8"
   inkscape:version="1.0.2-2 (e86c870879, 2021-01-15)"
   sodipodi:docname="favicon.svg">
  <defs
     id="defs2" />
  <sodipodi:namedview
     id="base"
     pagecolor="#ffffff"
     bordercolor="#666666"
     borderopacity="1.0"
     inkscape:pageopacity="0.0"
     inkscape:pageshadow="2"
     inkscape:zoom="0.9899495"
     inkscape:cx="251.61753"
     inkscape:cy="168.56201"
     inkscape:document-units="mm"
     inkscape:current-layer="layer1"
     inkscape:document-rotation="0"
     showgrid="false"
     inkscape:window-width="1920"
     inkscape:window-height="1017"
     inkscape:window-x="-8"
     inkscape:window-y="-8"
     inkscape:window-maximized="1"
     fit-margin-top="0"
     fit-margin-left="0"
     fit-margin-right="0"
     fit-margin-bottom="0" />
  <metadata
     id="metadata5">
    <rdf:RDF>
      <cc:Work
         rdf:about="">
        <dc:format>image/svg+xml</dc:format>
        <dc:type
           rdf:resource="http://purl.org/dc/dcmitype/StillImage" />
        <dc:title></dc:title>
      </cc:Work>
    </rdf:RDF>
  </metadata>
  <g
     inkscape:groupmode="layer"
     id="layer2"
     inkscape:label="Layer 2"
     style="display:inline;opacity:1"
     transform="translate(-44.9271,-116.37862)" />
  <g
     inkscape:label="Layer 1"
     inkscape:groupmode="layer"
     id="layer1"
     transform="translate(-44.9271,-116.37862)">
    <path
       style="fill:#000000;stroke-width:0.264583"
       id="path933"
       d="" />
    <path
       style="fill:#000000;stroke-width:0.264583"
       id="path941"
       d="" />
    <path
       style="fill:#000000;stroke-width:0.264583"
       id="path939"
       d="" />
    <path
       style="fill:#000000;stroke-width:0.264583"
       id="path937"
       d="" />
    <g
       id="g852"
       transform="matrix(1.8679405,0,0,1.8679405,-92.584989,-128.4681)">
      <path
         style="fill:#000000;stroke-width:0.148796"
         d="m 101.60669,188.36445 c -1.07708,-0.67042 -1.30852,-1.45344 -0.88902,-3.00783 0.14222,-0.52697 0.25038,-1.09204 0.24036,-1.25572 -0.13161,-2.14889 0.21629,-3.63696 1.23679,-5.29032 0.29031,-0.47034 0.52784,-0.98673 0.52784,-1.14753 0,-0.44085 0.95626,-2.26227 1.55488,-2.96162 0.29054,-0.33943 0.52892,-0.70694 0.52971,-0.81669 0.004,-0.54677 0.77002,-1.76752 1.52908,-2.43675 0.71949,-0.63435 2.33324,-1.71707 2.83616,-1.90288 0.12619,-0.0466 0.12238,-0.11555 -0.0144,-0.26055 -0.37627,-0.39885 -0.2199,-1.00362 0.37199,-1.43866 0.47225,-0.34711 0.55089,-0.48338 0.51187,-0.88684 -0.0254,-0.26219 0.0278,-0.61489 0.11822,-0.78377 0.12736,-0.23797 0.11263,-0.38087 -0.0655,-0.63516 -0.1264,-0.18046 -0.22982,-0.43943 -0.22982,-0.57549 0,-0.13605 -0.17261,-0.36046 -0.38357,-0.49869 -0.21097,-0.13823 -0.45091,-0.4445 -0.53322,-0.68061 -0.0823,-0.23611 -0.26123,-0.46207 -0.39761,-0.50215 -0.96073,-0.28228 -9.674188,-2.3428 -10.490626,-2.48077 -1.472721,-0.24888 -4.361662,-0.0986 -5.82728,0.30322 -0.654698,0.17948 -2.763879,0.95135 -4.687065,1.71528 -4.677218,1.85786 -6.944821,2.40908 -11.044781,2.68483 -1.765765,0.11876 -2.591555,4.5e-4 -2.806934,-0.40191 -0.126086,-0.2356 -0.102803,-0.33751 0.113538,-0.49691 0.334812,-0.24671 2.761731,-0.96144 7.281697,-2.1445 3.326088,-0.87056 3.459799,-0.92 4.091889,-1.51278 0.780187,-0.73166 2.687519,-2.0087 3.926944,-2.62925 0.98762,-0.49448 2.917104,-1.13338 3.925757,-1.29992 l 0.652246,-0.10769 -1.470624,-0.55665 c -1.839206,-0.69618 -3.383057,-1.47253 -7.63307,-3.83844 -5.972801,-3.32495 -9.074737,-5.28805 -9.366049,-5.92741 -0.511764,-1.1232 -0.01485,-1.14429 1.879113,-0.0798 5.777785,3.24751 12.562239,5.83573 19.657378,7.49914 1.700197,0.3986 2.314837,0.47438 3.812527,0.47004 1.6438,-0.005 1.88596,-0.0433 3.05032,-0.48468 0.69562,-0.26372 1.85422,-0.8019 2.57466,-1.19595 l 1.30991,-0.71645 -1.00751,-0.89687 c -0.99277,-0.88375 -1.00662,-0.9064 -0.94664,-1.54877 0.0335,-0.35854 0.0639,-1.12334 0.0677,-1.69956 0.006,-0.86576 -0.051,-1.12111 -0.32607,-1.47082 -0.18308,-0.23274 -0.33287,-0.57759 -0.33287,-0.76631 0,-0.54506 -0.24514,-0.56135 -1.09868,-0.073 -0.92663,0.53016 -1.46062,0.5753 -1.87724,0.15869 -0.36488,-0.36488 -0.36486,-0.36547 0.0418,-1.19037 l 0.33013,-0.66958 -1.04157,0.35119 c -1.461902,0.49291 -3.039186,0.41174 -4.403273,-0.22659 -1.683096,-0.78762 -2.599856,-1.86987 -1.734553,-2.04766 0.184139,-0.0378 0.602554,-0.12531 0.929824,-0.19438 l 0.595029,-0.12558 -1.504692,-0.477 c -1.646412,-0.52192 -2.644408,-1.23059 -2.82253,-2.00424 -0.09024,-0.39194 -0.07,-0.40921 0.479906,-0.40946 0.556253,-2.5e-4 0.532448,-0.0217 -0.765048,-0.68901 -1.827177,-0.93973 -2.527495,-1.44529 -2.751647,-1.98645 -0.104456,-0.25219 -0.151893,-0.49656 -0.105401,-0.54306 0.04651,-0.0465 0.507996,0.0217 1.025563,0.15148 0.517568,0.1298 1.275299,0.27364 1.68385,0.31965 l 0.742816,0.0837 -0.818378,-0.35486 c -1.968395,-0.85353 -2.783573,-1.51599 -3.415028,-2.77525 -0.663347,-1.32285 -0.674954,-1.43075 -0.176125,-1.63737 0.490759,-0.20328 0.620359,-0.15106 3.144766,1.26701 0.777459,0.43673 1.800233,0.96444 2.272833,1.17269 l 0.859274,0.37863 -0.243239,-0.47037 c -0.330274,-0.63868 -0.805725,-2.04283 -0.805725,-2.37956 0,-0.48342 0.302267,-0.29944 1.348301,0.82065 1.31985,1.41328 2.388751,1.97495 5.248457,2.7579 3.09809,0.84821 4.18518,1.02955 7.70609,1.28542 4.68963,0.34081 6.72504,0.96869 8.55148,2.63796 1.35937,1.24238 2.83652,3.82382 3.75915,6.56944 l 0.4318,1.28497 0.48116,-0.74983 c 0.66889,-1.04237 1.66565,-1.88336 2.97671,-2.51152 1.00642,-0.4822 1.2622,-0.54013 2.60571,-0.59012 1.29581,-0.0482 1.63794,-0.006 2.62801,0.32667 0.87448,0.29356 1.30903,0.36187 1.87523,0.29482 0.42632,-0.0505 0.77545,-0.025 0.82823,0.0603 0.0502,0.0812 -0.10284,0.67941 -0.34004,1.32937 -0.52642,1.44243 -0.84986,2.98356 -0.97805,4.66031 -0.2548,3.33284 -0.85369,5.53107 -2.07038,7.59948 -1.12114,1.90593 -2.93967,3.64475 -4.7831,4.57342 l -0.60637,0.30547 -0.24523,1.3866 c -0.13487,0.76264 -0.35051,2.22358 -0.47919,3.24655 -0.12868,1.02298 -0.33247,2.2617 -0.45286,2.75273 -0.49584,2.0223 -1.81047,3.93669 -3.44911,5.02268 -0.55301,0.3665 -1.69674,1.11741 -2.54161,1.6687 -3.04182,1.9848 -5.18161,4.45684 -7.31307,8.44859 -0.42605,0.79792 -0.86307,1.45076 -0.97114,1.45076 -0.33244,0 -0.58889,-1.97506 -0.41538,-3.19911 0.0812,-0.57286 0.12939,-1.06424 0.10706,-1.09194 -0.0539,-0.0669 -2.17817,2.60884 -3.10507,3.9113 -0.40419,0.56795 -0.97446,1.47093 -1.26727,2.0066 -0.29281,0.53569 -0.63169,0.99211 -0.75307,1.01429 -0.12138,0.0222 -0.42156,-0.0847 -0.66708,-0.23754 z m 0.80701,-0.72965 c 0.35358,-0.78125 1.86853,-2.9414 3.35381,-4.78219 0.82138,-1.01798 1.94866,-2.42576 2.50506,-3.12841 1.90043,-2.39994 4.57023,-4.83304 6.23531,-5.6825 1.02679,-0.52382 0.7834,-0.19983 -0.6527,0.86888 -1.71199,1.27401 -3.38915,2.8343 -4.48056,4.16832 -1.12975,1.38089 -1.59402,2.74629 -1.59005,4.67625 l 0.003,1.38732 0.73383,-1.38238 c 2.07947,-3.91729 4.65062,-6.64804 8.3751,-8.89496 0.79841,-0.48168 1.71918,-1.1116 2.04615,-1.39984 0.57601,-0.50778 0.59946,-0.56571 0.75417,-1.86323 0.0878,-0.73654 0.21132,-3.54879 0.27447,-6.24943 0.11104,-4.74955 0.12769,-4.94963 0.50834,-6.11301 0.24448,-0.7472 0.70853,-1.67337 1.22521,-2.44528 l 0.83167,-1.24254 -0.24453,-0.8715 c -0.28111,-1.00186 -0.32288,-2.98259 -0.085,-4.03114 0.55062,-2.42721 2.54328,-4.50568 5.09281,-5.31211 0.75411,-0.23853 1.28635,-0.52262 1.72608,-0.92132 l 0.63576,-0.57645 -0.55873,-0.23346 c -1.45119,-0.60634 -3.89382,-0.36083 -5.48871,0.55167 -1.47075,0.84148 -3.03747,2.94333 -2.82499,3.78992 0.089,0.35462 0.0653,0.3681 -0.64711,0.3681 -1.16026,0 -2.03577,0.24135 -5.94985,1.64019 -4.31089,1.54065 -5.08437,1.86535 -7.76667,3.26029 -4.12664,2.14609 -5.35903,2.29036 -10.135808,1.18655 -6.410225,-1.48128 -12.683403,-3.82898 -18.294107,-6.84648 -1.201537,-0.64619 -2.2266,-1.1749 -2.277922,-1.1749 -0.633215,0 3.446386,2.54937 9.223992,5.76414 5.137395,2.85854 7.438589,3.9097 9.882896,4.51441 0.702236,0.17373 1.336103,0.3718 1.408599,0.44016 0.312435,0.29462 -3.478678,2.24086 -6.464415,3.31864 -2.285436,0.82499 -4.442582,1.46482 -8.621376,2.55718 -3.960895,1.0354 -6.710636,1.81922 -6.829095,1.94665 -0.04943,0.0532 0.947944,0.059 2.216427,0.0128 3.765946,-0.13702 6.082561,-0.67853 10.547183,-2.46538 5.974449,-2.39111 6.269039,-2.44228 12.545739,-2.17923 3.153667,0.13217 3.316587,0.1074 5.839667,-0.88802 1.79698,-0.70894 3.95465,-1.30836 4.45346,-1.2372 0.17391,0.0248 -0.48729,0.30311 -1.46935,0.61843 -0.98205,0.31532 -2.42165,0.84292 -3.1991,1.17245 -0.77746,0.32952 -1.94923,0.70523 -2.60393,0.83489 l -1.19037,0.23575 3.4223,0.84898 3.4223,0.84897 0.26639,-0.32283 c 0.1465,-0.17756 0.54711,-0.65467 0.89022,-1.06025 0.34312,-0.40559 0.77225,-1.05775 0.95364,-1.44925 0.73888,-1.59479 2.8965,-3.85972 4.48176,-4.70465 1.82741,-0.97401 3.24097,-1.29057 3.83223,-0.85823 0.38968,0.28495 0.19746,0.43773 -0.2781,0.22105 -0.29293,-0.13346 -0.54988,-0.13273 -1.09799,0.003 -0.84908,0.2105 -2.78157,1.13511 -3.051,1.45975 -0.11999,0.14458 0.083,0.0912 0.55204,-0.14526 0.88324,-0.4452 1.59091,-0.6169 2.00323,-0.48603 0.47124,0.14956 0.35283,0.37305 -0.19765,0.37305 -0.27421,0 -0.72618,0.0761 -1.00437,0.1691 -0.70991,0.23736 -2.75343,1.61098 -3.5798,2.40631 -1.09445,1.05331 -1.18881,1.47294 -0.11213,0.4986 1.12918,-1.02185 2.73353,-1.85463 3.81853,-1.98211 0.97773,-0.11488 1.06979,0.16725 0.098,0.30044 -1.5175,0.208 -4.23975,2.16749 -6.01267,4.32796 -1.05001,1.27954 -1.07476,1.32959 -0.75597,1.52867 0.22789,0.14233 0.34593,0.063 0.80836,-0.5434 0.78024,-1.02312 3.04718,-3.16879 3.83678,-3.63152 0.6594,-0.38644 2.06266,-0.75984 2.06266,-0.54886 0,0.0583 -0.28457,0.18938 -0.63238,0.29126 -1.04953,0.30741 -1.82585,0.84719 -3.17787,2.20956 -1.466,1.47725 -2.43917,2.69799 -2.43917,3.0597 0,0.17097 0.12581,0.24579 0.40919,0.24335 0.30483,-0.003 0.52303,-0.15871 0.85558,-0.61207 1.22698,-1.67275 3.4677,-3.24708 5.02825,-3.53286 0.96039,-0.17587 0.85494,0.0991 -0.17184,0.44815 -1.69414,0.57585 -3.35064,1.81464 -4.61092,3.4482 -0.62933,0.81572 -0.78258,1.38845 -0.4098,1.53151 0.11423,0.0438 0.62209,-0.1295 1.12857,-0.38517 0.82978,-0.41887 3.39864,-1.34063 3.73622,-1.34063 0.41367,0 0.01,0.27031 -0.86899,0.58186 -0.5524,0.19581 -1.63279,0.66391 -2.40087,1.04022 -1.11564,0.5466 -1.44302,0.78177 -1.62782,1.16931 -0.35309,0.74043 -0.10597,0.86193 1.00879,0.49598 1.1768,-0.38633 3.28578,-0.66999 4.06036,-0.54613 0.32825,0.0525 0.73715,0.19372 0.90865,0.31385 0.37648,0.2637 0.12459,0.28327 -0.65181,0.0507 -0.44424,-0.13309 -0.8768,-0.11479 -2.09285,0.0885 -2.61145,0.43666 -4.62552,1.38918 -4.3645,2.0641 0.0797,0.20612 0.20172,0.25142 0.49401,0.18343 2.32125,-0.53993 4.02252,-0.62907 5.63902,-0.29544 0.69416,0.14327 0.52056,0.44798 -0.20369,0.35752 -0.32081,-0.04 -1.31984,-0.066 -2.22005,-0.0577 -1.39693,0.0129 -1.78937,0.0738 -2.67833,0.41551 -1.40507,0.54011 -2.84814,1.41524 -3.8626,2.34239 -0.72478,0.66241 -1.43451,1.61643 -1.20251,1.61643 0.0418,0 0.41627,-0.20938 0.83216,-0.46528 1.91841,-1.1804 5.62385,-2.51063 6.99354,-2.51063 1.06008,0 1.02919,0.25256 -0.0453,0.37031 -2.49911,0.27388 -7.30741,2.41571 -8.21689,3.66016 -0.68015,0.93068 -1.36568,1.99251 -1.46961,2.27634 -0.0924,0.25242 -0.0743,0.25989 0.18062,0.0744 2.69604,-1.96175 6.07125,-3.90841 8.09587,-4.66933 1.39922,-0.52588 0.84844,-0.0753 -1.10348,0.90264 -3.44312,1.72515 -7.5672,4.40967 -7.5672,4.9258 0,0.12403 -0.12533,0.40325 -0.27851,0.62048 -0.86359,1.22467 -1.51176,3.11065 -1.49877,4.36094 l 0.008,0.79548 0.28307,-0.37199 c 0.15569,-0.20459 0.80241,-1.07505 1.43716,-1.93434 1.58332,-2.14344 3.88464,-4.39843 6.41902,-6.28979 2.39725,-1.78902 3.85497,-2.57691 5.15655,-2.78709 1.18537,-0.19142 1.42946,0.0659 0.28119,0.29638 -2.91212,0.58464 -8.3135,4.77334 -11.22663,8.7061 -2.80675,3.78913 -3.32095,5.26442 -2.19915,6.30953 0.44566,0.4152 0.64045,0.39323 0.86246,-0.0973 z m 18.61335,-17.03445 c 0.43372,-0.9283 0.50307,-1.27255 1.19206,-5.9173 0.32839,-2.21383 1.25417,-6.21277 1.49672,-6.46518 0.0858,-0.0893 0.18633,-0.0893 0.27289,0 0.084,0.0866 -0.007,0.67987 -0.2343,1.53141 -0.20425,0.76452 -0.33909,1.42232 -0.29964,1.46177 0.17259,0.1726 2.09218,-1.24213 3.04167,-2.2417 2.02401,-2.13075 3.12524,-4.66573 3.45829,-7.96078 0.0877,-0.8674 0.22814,-2.10315 0.31214,-2.74613 0.14855,-1.13708 0.14328,-1.17553 -0.19253,-1.40712 -0.4594,-0.31681 -1.07458,-0.93274 -1.25405,-1.25558 -0.1358,-0.24432 -0.21644,-0.23658 -1.28727,0.12345 -2.67295,0.8987 -4.29661,2.65378 -4.85235,5.24509 -0.0925,0.4313 -0.16818,1.10497 -0.16818,1.49703 0,0.87311 0.46673,2.75245 0.88924,3.58064 0.29947,0.58702 0.29681,0.89972 -0.008,0.89972 -0.0783,0 -0.25495,-0.23599 -0.3925,-0.52442 l -0.25007,-0.52441 -0.63653,0.9893 c -1.30901,2.0345 -1.59908,3.27125 -1.56695,6.68095 0.0235,2.49688 -0.16165,6.67007 -0.35654,8.03497 -0.0828,0.57965 -0.0787,0.58651 0.15741,0.26306 0.13331,-0.18267 0.43847,-0.75182 0.67814,-1.26477 z m 5.35414,-22.08623 c 0,-0.89388 0.4947,-1.9272 1.09909,-2.29574 0.49998,-0.30488 1.20747,-0.37521 1.35604,-0.13481 0.0506,0.0818 0.021,0.1488 -0.0656,0.1488 -0.0867,0 -0.15758,0.27445 -0.15758,0.60989 0,1.15158 -0.68577,2.00764 -1.82275,2.27535 -0.40204,0.0947 -0.40919,0.0841 -0.40919,-0.60349 z m 1.10259,-0.0606 c 0.15102,-0.14066 -0.51084,-0.74864 -0.69265,-0.63627 -0.0618,0.0382 -0.11234,0.27087 -0.11234,0.51707 0,0.39498 0.0394,0.43573 0.33479,0.34648 0.18413,-0.0556 0.39572,-0.15791 0.4702,-0.22728 z m 0.68296,-1.41997 v -0.66921 l -0.44638,0.26369 c -0.54985,0.3248 -0.60846,0.89183 -0.1116,1.07962 0.47637,0.18004 0.55798,0.0814 0.55798,-0.6741 z m -2.82712,1.05398 c 0,-0.38304 0.38732,-1.16955 0.72344,-1.46903 0.41107,-0.36627 0.40098,-0.26385 -0.0521,0.52865 -0.20361,0.35617 -0.37101,0.76475 -0.372,0.90797 -10e-4,0.14321 -0.0688,0.26039 -0.15058,0.26039 -0.0818,0 -0.1488,-0.10259 -0.1488,-0.22798 z m -37.558946,12.49169 c 1.13913,-0.37483 2.627485,-0.9118 3.307456,-1.19326 1.52035,-0.62932 3.897144,-1.81422 3.897144,-1.94284 0,-0.0521 -0.485445,-0.0528 -1.078764,-0.002 -2.138521,0.1848 -4.369114,1.02751 -6.515131,2.46137 -1.176624,0.78615 -1.911376,1.34897 -1.768245,1.35445 0.04752,0.002 1.01841,-0.30338 2.15754,-0.67821 z m 21.133626,-9.1587 c 1.14586,-0.52107 6.21566,-2.37701 8.4364,-3.08838 0.83804,-0.26845 1.76405,-0.46302 2.20359,-0.46302 0.596,0 0.74066,-0.0454 0.67652,-0.21263 -0.0449,-0.11694 -0.12645,-0.45173 -0.18128,-0.74398 -0.059,-0.31478 -0.18631,-0.53135 -0.31224,-0.53135 -0.37139,0 -1.29246,-0.5433 -2.04346,-1.20535 -0.39972,-0.35238 -1.66902,-1.81559 -2.82065,-3.25157 -2.41636,-3.01299 -3.34911,-4.03921 -4.21188,-4.63392 -0.59101,-0.40739 -0.73968,-0.4346 -3.51531,-0.64344 -3.09165,-0.23261 -5.12561,-0.61378 -8.143229,-1.52608 -1.980498,-0.59875 -2.787016,-1.00369 -3.848549,-1.93229 -0.420265,-0.36764 -0.762556,-0.61302 -0.760644,-0.5453 0.0017,0.0677 0.186046,0.45793 0.409192,0.86711 0.325864,0.59756 0.581414,0.83761 1.298485,1.21972 2.133921,1.13711 4.848945,1.96517 7.551385,2.3031 1.56965,0.19628 1.92754,0.42062 0.66958,0.41971 -1.88847,-0.001 -4.858873,-0.70707 -7.030596,-1.67031 -0.736541,-0.32668 -1.774392,-0.74692 -2.30634,-0.93385 -1.35145,-0.47493 -2.082361,-0.81999 -3.952195,-1.86582 -0.895204,-0.5007 -1.849211,-1.00358 -2.120012,-1.11751 -0.478989,-0.2015 -0.489725,-0.19814 -0.395138,0.12373 0.212247,0.72226 1.068259,1.94717 1.63486,2.3394 1.536529,1.06367 7.573115,3.09589 11.528301,3.88101 1.18665,0.23556 2.30819,0.42964 2.49233,0.43128 0.18413,0.002 0.33479,0.0778 0.33479,0.16913 0,0.19087 -1.21313,0.0973 -3.34791,-0.25816 -1.792449,-0.29848 -3.375054,-0.70842 -5.060433,-1.3108 -0.767454,-0.2743 -1.42457,-0.46953 -1.460259,-0.43384 -0.109348,0.10935 -3.133119,-0.2394 -3.985375,-0.45965 l -0.802412,-0.20737 0.446388,0.36264 c 0.245512,0.19945 1.263056,0.77112 2.261209,1.27037 1.794615,0.89764 1.847613,0.91326 4.761462,1.40336 1.620655,0.27259 3.73341,0.57505 4.695,0.67213 2.39651,0.24193 2.30088,0.50684 -0.13594,0.37656 -2.030609,-0.10855 -4.23616,-0.38751 -5.974419,-0.75566 -0.598674,-0.12679 -1.519916,-0.23053 -2.047202,-0.23053 -0.914533,0 -0.950323,0.0134 -0.776801,0.29128 0.259993,0.41631 1.354414,0.97462 2.648221,1.35097 1.881536,0.54731 5.647751,0.56788 8.592471,0.047 0.26598,-0.0471 0.48359,-0.022 0.48359,0.0556 0,0.22122 -2.73169,0.66091 -4.53827,0.73047 -1.569179,0.0604 -4.686822,0.61109 -4.68699,0.82785 -1.47e-4,0.20551 1.038616,0.89064 1.774037,1.17008 1.876234,0.71291 3.129273,0.51736 6.171663,-0.96319 2.13238,-1.0377 2.92485,-1.33295 3.3243,-1.23855 0.1771,0.0418 0.0213,0.16784 -0.48238,0.39007 -2.90325,1.28092 -2.98094,1.33116 -3.55244,2.29724 -0.2967,0.50153 -0.53945,0.98993 -0.53945,1.08534 0,0.38246 0.52433,0.34369 1.38093,-0.10212 0.53521,-0.27855 1.03048,-0.43695 1.24061,-0.39678 0.29376,0.0562 0.42015,-0.0579 0.78945,-0.71223 0.48259,-0.8551 1.79696,-2.34043 2.71319,-3.0661 1.0348,-0.81958 0.75711,-0.36695 -0.65791,1.07235 -1.47806,1.50342 -2.43931,3.01659 -2.26507,3.56557 0.0815,0.25683 0.17795,0.17452 0.65549,-0.55951 0.85689,-1.31714 1.85471,-2.34018 3.0851,-3.16311 0.61496,-0.41132 1.17947,-0.74785 1.25445,-0.74785 0.30784,0 0.0956,0.24853 -0.57072,0.66822 -1.5268,0.96172 -4.05442,3.73798 -4.05442,4.45325 0,0.3573 0.20576,0.28198 0.47532,-0.17401 0.44606,-0.75455 2.35325,-2.85105 2.9882,-3.28481 0.63244,-0.43205 1.70475,-0.85905 1.83363,-0.73018 0.0381,0.0381 -0.31428,0.25706 -0.78318,0.48646 -0.9955,0.48706 -2.41846,1.87063 -3.48328,3.38689 -0.84723,1.2064 -0.99716,1.83979 -0.21466,0.9068 0.98034,-1.16885 3.85418,-3.28791 4.27074,-3.14906 0.0975,0.0325 -0.22039,0.30109 -0.7064,0.59687 -1.58534,0.96479 -4.08277,3.36346 -4.08277,3.92131 0,0.12464 0.46325,-0.15529 1.11793,-0.67555 1.24587,-0.99005 2.55509,-1.76273 3.94068,-2.32575 1.52374,-0.61915 1.372,-0.3117 -0.24119,0.48869 -1.74332,0.86496 -2.53343,1.38594 -3.94701,2.60256 -1.12654,0.96959 -1.2747,1.39053 -0.70347,1.99858 l 0.31574,0.33609 0.62481,-0.84729 c 1.0554,-1.43123 2.61986,-2.75778 4.14501,-3.51469 1.45033,-0.71978 1.5921,-0.76732 1.5921,-0.53385 0,0.0807 -0.41849,0.35639 -0.92998,0.61273 -1.7708,0.88747 -3.91899,2.70082 -4.79571,4.04821 -0.24241,0.37254 -0.24762,0.44255 -0.0478,0.64237 0.19981,0.19981 0.35267,0.0974 1.40245,-0.93977 1.53774,-1.51925 3.32831,-2.46281 5.30101,-2.79341 0.95275,-0.15968 0.61887,0.17018 -0.52078,0.5145 -1.76059,0.53193 -3.29052,1.41467 -4.51797,2.60679 -0.60449,0.5871 -1.09907,1.14483 -1.09907,1.2394 0,0.22832 -0.0381,0.2382 1.13258,-0.29414 z m 21.76386,-5.37415 c 0.0678,-0.18413 0.17058,-0.53566 0.22832,-0.78117 l 0.105,-0.44639 -0.5553,0.54896 c -0.472,0.46663 -0.52639,0.5838 -0.36257,0.78118 0.26643,0.32104 0.43971,0.29063 0.58455,-0.10258 z m -10.99278,-0.33139 c 0,-0.20886 -0.7766,-2.08458 -1.26432,-3.05371 -1.05567,-2.09768 -2.28311,-3.5858 -3.64594,-4.42025 -0.48632,-0.29776 -2.2337,-0.93061 -3.16157,-1.14502 -0.37231,-0.086 -0.34675,-0.0377 0.28608,0.54066 0.3822,0.34932 1.71304,1.90734 2.95739,3.46225 2.15625,2.69437 3.2623,3.8938 4.08438,4.4292 0.36095,0.23507 0.74398,0.33128 0.74398,0.18687 z m 10.85023,-0.99431 0.9256,-0.84211 -0.64286,0.14264 c -0.58027,0.12876 -1.75883,0.76569 -1.75883,0.95054 0,0.15426 0.37351,0.66462 0.46007,0.62863 0.0497,-0.0207 0.50694,-0.41653 1.01602,-0.8797 z"
         id="path943" />
      <path
         style="fill:#000000;stroke-width:0.108065"
         d="m 132.63999,161.04849 c 0,-0.0634 0.1171,-0.27008 0.26023,-0.45928 0.14312,-0.1892 0.63359,-1.07996 1.08991,-1.97946 0.80809,-1.59289 0.82544,-1.64353 0.66666,-1.94518 -0.24034,-0.45658 -1.20471,-1.33966 -2.1034,-1.9261 -0.47009,-0.30676 -0.95834,-0.73937 -1.20789,-1.07024 -0.48511,-0.64319 -1.12836,-1.94493 -0.98478,-1.99287 0.0538,-0.018 0.27857,0.0428 0.49946,0.13514 0.22089,0.0923 0.7172,0.21822 1.1029,0.27984 1.17727,0.18807 1.72227,0.57917 2.24473,1.61088 0.24434,0.4825 0.54748,1.548 0.64768,2.27651 0.0521,0.37857 0.10894,0.52202 0.16632,0.41949 0.20101,-0.35918 0.75473,-2.43716 0.81157,-3.04561 0.0338,-0.36221 0.0862,-0.69846 0.11635,-0.74725 0.1149,-0.18591 -0.49744,-1.25635 -1.21335,-2.12109 -1.34141,-1.62026 -2.10312,-3.05884 -2.17867,-4.11463 -0.0497,-0.69484 0.15551,-1.52848 0.37395,-1.51902 0.0476,0.002 0.41497,0.24619 0.81636,0.54252 0.86343,0.63743 1.37414,1.35736 1.75278,2.4708 0.14995,0.44095 0.33989,0.87862 0.4221,0.97259 0.0822,0.094 0.25037,0.36538 0.37368,0.60312 0.12332,0.23775 0.22597,0.38363 0.22811,0.3242 0.0207,-0.57477 -0.29704,-2.33023 -0.63566,-3.51213 -0.22989,-0.80239 -0.45234,-1.62317 -0.49432,-1.82395 l -0.0763,-0.36506 -0.82588,0.0949 c -1.92096,0.22074 -2.8011,0.0504 -3.76295,-0.72825 -0.38665,-0.31301 -1.33151,-1.39147 -1.33151,-1.51979 0,-0.0234 0.76591,-0.0408 1.70202,-0.0386 1.63953,0.004 1.72457,0.0151 2.31544,0.3053 0.33738,0.16567 0.86014,0.53287 1.16171,0.816 0.30156,0.28312 0.5483,0.47388 0.5483,0.42391 0,-0.18441 -0.47877,-1.02673 -1.10367,-1.9417 -0.89907,-1.31645 -1.07986,-1.83631 -1.11963,-3.21963 -0.0334,-1.16036 -0.0191,-1.14191 0.25047,0.32419 l 0.0894,0.48629 0.0736,-0.34666 c 0.0468,-0.22059 0.0139,-0.48951 -0.0906,-0.7395 -0.0903,-0.21606 -0.14327,-0.44909 -0.11777,-0.51786 0.0255,-0.0688 0.0819,0.009 0.12543,0.17215 0.0435,0.16346 0.14568,0.29719 0.22708,0.29719 0.0814,0 0.58674,0.42882 1.12297,0.95294 0.53624,0.52412 0.97522,0.90099 0.97552,0.8375 3.2e-4,-0.0635 -0.52246,-0.63134 -1.1617,-1.2619 -1.39164,-1.37273 -1.43367,-1.42394 -1.42789,-1.73972 0.004,-0.21509 0.0318,-0.19791 0.2116,0.13052 l 0.20707,0.37824 0.005,-0.61 c 0.005,-0.68202 0.31096,-1.76561 0.67962,-2.40744 0.32533,-0.5664 0.51363,-0.61738 0.51363,-0.13906 0,0.41702 0.15775,0.91097 0.69747,2.1839 0.40855,0.96356 0.54475,1.80994 0.40866,2.53954 -0.0766,0.41069 -0.0907,0.32667 -0.0904,-0.54032 3.2e-4,-0.97104 -0.0236,-1.0793 -0.44135,-1.99922 -0.44267,-0.97477 -0.65399,-1.60247 -0.70942,-2.10728 l -0.0297,-0.27016 -0.20851,0.30976 c -0.2142,0.31822 -0.29747,0.74537 -0.30431,1.56108 -0.002,0.29075 -0.0377,0.41266 -0.0938,0.32419 -0.11557,-0.18224 -0.10202,1.16891 0.0154,1.53323 0.0566,0.1755 0.0734,0.024 0.048,-0.43226 l -0.039,-0.70243 0.11174,0.75647 c 0.0615,0.41604 0.16373,0.80508 0.22727,0.86452 0.0809,0.0756 0.0911,0.0432 0.0341,-0.10807 -0.0448,-0.11887 -0.0966,-0.77537 -0.11514,-1.45889 l -0.0337,-1.24274 0.0833,1.08065 c 0.10855,1.40852 0.21852,1.95983 0.35245,1.76675 0.07,-0.10088 0.08,-0.0709 0.0327,0.0974 -0.0379,0.13495 -0.0206,0.24314 0.0391,0.24314 0.0591,0 0.12966,-0.0851 0.15684,-0.18911 0.0311,-0.11898 0.0541,-0.0813 0.062,0.10169 0.007,0.15994 0.0612,0.32086 0.1206,0.35759 0.1532,0.0947 0.13246,-0.51673 -0.0458,-1.35082 -0.27014,-1.26384 -0.27769,-1.35923 -0.0556,-0.70243 0.12059,0.35662 0.23936,1.00867 0.26392,1.44901 0.061,1.0931 0.26975,1.28147 0.26975,0.24339 0,-0.66322 -0.0745,-0.98136 -0.48917,-2.08999 -0.26905,-0.71923 -0.47083,-1.32602 -0.44843,-1.34843 0.0224,-0.0224 0.26685,0.56716 0.54321,1.31016 0.43959,1.18189 0.50246,1.45644 0.50246,2.19435 0,0.61888 0.0553,0.95196 0.20785,1.25111 0.1905,0.37366 0.19448,0.43969 0.0477,0.79099 -0.24948,0.59707 -0.12129,0.51824 0.2213,-0.13609 0.29657,-0.56644 1.85867,-2.17547 1.98722,-2.04692 0.0316,0.0315 0.0372,0.0711 0.0124,0.0879 -0.95825,0.64784 -2.0552,1.98305 -2.21065,2.69084 -0.0537,0.24427 -0.0981,0.29339 -0.16647,0.18386 -0.0558,-0.0895 -0.066,0.0199 -0.0254,0.27258 0.039,0.24265 0.0262,0.39662 -0.0301,0.36223 -0.0539,-0.0329 -0.10653,0.1419 -0.11705,0.38844 l -0.0191,0.44827 0.16156,-0.43227 c 0.0889,-0.23774 0.17775,-0.59051 0.19753,-0.78391 0.0198,-0.19341 0.15021,-0.54113 0.28984,-0.77272 0.24709,-0.40985 1.60468,-1.92252 1.60468,-1.788 0,0.0371 -0.28774,0.36707 -0.6394,0.7334 -0.58089,0.6051 -1.29155,1.74293 -1.16662,1.86786 0.0279,0.0279 0.17458,-0.15816 0.32597,-0.41345 0.1514,-0.25529 0.57759,-0.80254 0.94709,-1.21612 0.36951,-0.41358 0.79042,-0.99714 0.93536,-1.29679 0.17215,-0.3559 0.2396,-0.43602 0.19451,-0.23105 -0.0834,0.37914 -0.49104,0.98158 -1.24333,1.83753 -0.54186,0.61653 -1.08263,1.38535 -1.08263,1.53919 0,0.12494 1.22626,-1.26072 1.48534,-1.67841 0.13343,-0.2151 0.24285,-0.32566 0.24315,-0.24569 0.001,0.31385 -1.55756,2.12154 -1.73489,2.01195 -0.119,-0.0735 -0.24157,0.3513 -0.14598,0.50597 0.0516,0.0836 0.0302,0.0964 -0.0638,0.0383 -0.0916,-0.0566 -0.11532,-0.0452 -0.0673,0.0326 0.0408,0.066 0.15773,0.0896 0.25984,0.0524 0.16047,-0.0585 0.1571,-0.0351 -0.0249,0.17201 -0.4768,0.54265 -0.4608,1.08635 0.0918,3.11914 0.27335,1.00559 0.497,1.90953 0.497,2.00877 0,0.0992 0.0365,0.18025 0.081,0.18003 0.15881,-5.6e-4 0.44336,-0.93031 0.51266,-1.6746 0.0822,-0.88347 0.29893,-1.79479 0.58597,-2.46442 0.34336,-0.80103 0.80451,-1.21956 1.93782,-1.75876 0.57366,-0.27293 1.13541,-0.57717 1.24832,-0.67607 0.19728,-0.17281 0.20218,-0.16717 0.12553,0.14436 -0.0439,0.1783 -0.17155,0.80421 -0.28373,1.39089 -0.29765,1.55675 -0.87276,2.40619 -2.20694,3.25965 -0.67278,0.43037 -0.66787,0.42884 -0.66787,0.20904 0,-0.091 0.30234,-0.38121 0.67187,-0.6449 1.05077,-0.74981 1.44404,-1.29596 1.78987,-2.48564 0.10367,-0.35661 0.19195,-0.57211 0.19618,-0.47889 0.0118,0.26078 -0.31547,1.31301 -0.49644,1.59595 -0.0888,0.13889 -0.13659,0.27745 -0.10612,0.30792 0.13395,0.13395 0.59479,-1.08018 0.76132,-2.00576 0.10025,-0.55718 0.16196,-1.03336 0.13713,-1.05819 -0.0248,-0.0249 -0.18493,0.11379 -0.35578,0.30804 -0.17086,0.19425 -0.55161,0.58533 -0.84612,0.86908 -0.29451,0.28374 -0.49209,0.51589 -0.43906,0.51589 0.053,0 -0.0429,0.14538 -0.2131,0.32307 -0.17024,0.17769 -0.28719,0.34539 -0.25991,0.37268 0.0273,0.0273 0.47356,-0.41094 0.99173,-0.97384 0.98443,-1.06941 1.32817,-1.28017 0.41881,-0.25679 -0.28781,0.3239 -0.50599,0.63952 -0.48483,0.70138 0.0212,0.0619 -0.14209,0.28068 -0.36278,0.48629 l -0.40126,0.37383 0.34576,-0.40901 c 0.51442,-0.60851 0.41,-0.64269 -0.13953,-0.0457 -0.4459,0.48444 -1.13569,1.55478 -1.13569,1.76222 0,0.0509 0.15691,-0.10092 0.3487,-0.33735 0.19179,-0.23643 0.5995,-0.69733 0.90603,-1.02423 0.30652,-0.3269 0.66003,-0.76456 0.78557,-0.97259 0.12555,-0.20803 0.22845,-0.33856 0.22867,-0.29008 8.4e-4,0.15692 -0.23586,0.5498 -0.60958,1.01232 -0.20732,0.25658 -0.31869,0.48087 -0.25754,0.51866 0.0593,0.0367 0.20556,-0.0939 0.32513,-0.28998 0.11956,-0.19611 0.21757,-0.30659 0.21779,-0.24553 8.5e-4,0.25361 -0.76003,1.17463 -1.13428,1.37288 -0.21036,0.11143 -0.21089,0.10859 -0.02,-0.10664 0.11845,-0.13354 0.1532,-0.24767 0.0877,-0.28814 -0.0596,-0.0368 -0.28671,0.16499 -0.50459,0.44855 -0.21789,0.28356 -0.43414,0.50527 -0.48057,0.49268 -0.0464,-0.0126 -0.073,0.14767 -0.059,0.3561 0.0185,0.2756 -0.0292,0.40819 -0.17465,0.48604 -0.11002,0.0589 -0.33186,0.36062 -0.49298,0.67053 -0.27105,0.52135 -0.29393,0.66686 -0.30623,1.94702 l -0.0133,1.38357 0.54953,-0.52952 c 0.71436,-0.68836 1.01865,-0.88147 2.06244,-1.30889 0.47549,-0.1947 1.00399,-0.48332 1.17444,-0.64136 l 0.30992,-0.28736 -0.0492,0.86452 c -0.0541,0.94964 -0.42589,1.85838 -1.0523,2.57181 -0.36397,0.41454 -1.28643,0.93077 -2.16592,1.2121 -1.28053,0.4096 -1.33953,0.46599 -1.60199,1.53089 -0.32331,1.31179 -0.83962,2.65344 -1.63514,4.249 -1.09095,2.18808 -1.62582,3.03897 -1.62582,2.58637 z m 2.15372,-4.94317 c -0.006,-0.14897 -0.0247,-0.1428 -0.10047,0.0334 -0.0794,0.18482 -0.094,0.18872 -0.10048,0.027 -0.004,-0.10402 -0.0459,-0.18912 -0.0927,-0.18912 -0.12614,0 -0.136,-0.43725 -0.0149,-0.66341 0.0579,-0.10817 0.0722,-0.32861 0.0317,-0.48986 l -0.0736,-0.29318 -0.0934,0.25259 c -0.0514,0.13893 -0.0661,0.35496 -0.0326,0.48008 0.0503,0.18821 0.0328,0.18084 -0.10192,-0.0427 -0.0895,-0.14859 -0.16558,-0.22153 -0.16901,-0.1621 -0.003,0.0594 -0.0967,-0.01 -0.20732,-0.15352 -0.1106,-0.14387 -0.31619,-0.27886 -0.45688,-0.29996 -0.20641,-0.031 -0.14627,0.0577 0.31156,0.45909 0.31204,0.2736 0.56734,0.54231 0.56734,0.59713 0,0.0548 -0.19126,-0.0916 -0.42504,-0.32534 -0.23377,-0.23378 -0.56201,-0.51196 -0.72944,-0.61819 -0.78234,-0.49641 -1.42936,-1.04749 -1.74364,-1.48512 -0.48644,-0.67735 -0.42729,-0.73053 0.0878,-0.0789 0.44558,0.56372 1.58023,1.49594 1.68871,1.38746 0.0337,-0.0337 -0.23606,-0.29234 -0.59959,-0.57465 -0.42022,-0.32633 -0.61501,-0.54168 -0.53479,-0.59126 0.0807,-0.0499 -2e-5,-0.14322 -0.22381,-0.25895 -0.19249,-0.0995 -0.32704,-0.20392 -0.299,-0.23196 0.0281,-0.028 0.30216,0.0971 0.60916,0.27813 0.59798,0.35258 0.7089,0.39288 0.60104,0.21836 -0.0377,-0.0609 -0.41023,-0.28287 -0.82795,-0.49323 -0.41772,-0.21037 -0.7349,-0.40706 -0.70485,-0.43711 0.0842,-0.0842 0.9192,0.36592 1.68374,0.90776 0.3793,0.26879 0.66853,0.42091 0.64275,0.33804 -0.0258,-0.0829 -0.29858,-0.31788 -0.60621,-0.52226 -0.30763,-0.20437 -0.54067,-0.39024 -0.51787,-0.41304 0.0884,-0.0884 0.91509,0.51982 1.23653,0.90979 0.42568,0.51642 0.4446,0.3242 0.0251,-0.25491 -0.30567,-0.42196 -1.09818,-0.86433 -1.31187,-0.73226 -0.0538,0.0333 -0.21605,-0.0169 -0.36046,-0.11155 -0.14442,-0.0946 -0.43657,-0.18317 -0.64922,-0.19678 -0.21265,-0.0136 -0.44422,-0.0823 -0.5146,-0.15269 -0.16396,-0.16397 0.17813,-0.10586 1.40355,0.23843 0.98169,0.2758 1.40027,0.57845 1.75568,1.26941 0.20611,0.4007 0.28416,0.69979 0.11155,0.4275 -0.0731,-0.11536 -0.10491,-0.10885 -0.1592,0.0326 -0.0451,0.11744 -0.0258,0.1508 0.0574,0.0994 0.0821,-0.0507 0.1028,-0.0191 0.0602,0.092 -0.0357,0.0931 0.007,0.25915 0.0948,0.36894 0.14669,0.18327 0.15439,0.16866 0.0941,-0.17861 -0.0512,-0.29473 -0.0388,-0.34245 0.056,-0.21614 0.26265,0.34983 -0.023,-0.38513 -0.37794,-0.97258 -0.43165,-0.71435 -0.95847,-1.0215 -2.0406,-1.18975 -0.40866,-0.0635 -0.88719,-0.19008 -1.06341,-0.2812 -0.31498,-0.16289 -0.31911,-0.16145 -0.24437,0.0853 0.31349,1.03481 1.16423,2.04814 2.4393,2.9055 0.52244,0.35129 1.10555,0.8324 1.29581,1.06915 0.34532,0.4297 0.53778,0.47872 0.52343,0.13329 z m -0.41614,-1.05626 c 0.005,-0.1259 0.0308,-0.1515 0.0653,-0.0653 0.0312,0.078 0.0274,0.17121 -0.009,0.20712 -0.0359,0.0359 -0.0615,-0.028 -0.0567,-0.14183 z m 0.27917,0.36021 c -0.03,-0.0743 -0.0545,-0.0135 -0.0545,0.13508 0,0.1486 0.0246,0.20938 0.0545,0.13509 0.03,-0.0743 0.03,-0.19587 0,-0.27017 z m -0.75814,-0.77444 c -0.0965,-0.14732 -0.14954,-0.33557 -0.11778,-0.41832 0.0317,-0.0828 -0.0174,-0.21282 -0.10929,-0.28905 -0.13618,-0.11302 -0.16702,-0.11249 -0.16702,0.003 0,0.0813 -0.12905,0.0179 -0.30309,-0.14887 -0.56796,-0.54414 -0.47856,-0.29245 0.12936,0.36417 0.3333,0.36001 0.606,0.70852 0.606,0.77448 0,0.0659 0.0309,0.089 0.0687,0.0512 0.0378,-0.0378 -0.0103,-0.18922 -0.10685,-0.33654 z m -0.5003,-0.27574 c -0.1295,-0.24198 -1.05401,-0.97604 -1.22927,-0.97604 -0.13975,0 0.0283,0.16877 0.74113,0.74457 0.62799,0.50724 0.63836,0.51216 0.48814,0.23147 z m 3.31345,-1.6655 c -0.0106,-0.0565 0.39882,-0.25937 0.90985,-0.45073 0.95256,-0.3567 1.82652,-0.85846 1.82652,-1.04867 0,-0.0588 -0.10942,-0.0263 -0.24315,0.0721 -0.28807,0.21199 -1.12998,0.61145 -1.8101,0.85881 -0.26746,0.0973 -0.62489,0.28813 -0.79429,0.4241 -0.27312,0.21924 -0.28317,0.24724 -0.0888,0.24724 0.12058,0 0.21055,-0.0463 0.19994,-0.10281 z m 0.79859,-0.13309 c 0.84502,-0.25072 1.54814,-0.63213 2.00204,-1.08603 0.56435,-0.56435 1.02951,-1.61902 1.09969,-2.49335 l 0.0575,-0.71605 -0.24472,0.22799 c -0.1346,0.1254 -0.51884,0.33673 -0.85386,0.46963 -1.6237,0.64407 -2.46746,1.29382 -2.99931,2.30962 -0.16745,0.31983 -0.34195,0.55834 -0.38778,0.53002 -0.0458,-0.0283 -0.0528,0.0281 -0.0155,0.12528 0.0485,0.12644 0.0905,0.14014 0.14735,0.0481 0.0499,-0.0808 0.1042,-0.0887 0.14587,-0.0213 0.0365,0.059 -0.006,0.16746 -0.0946,0.2409 -0.0885,0.0734 -0.15937,0.18838 -0.15747,0.2554 0.002,0.067 0.0748,0.0274 0.1621,-0.0879 0.0873,-0.11537 0.15866,-0.17329 0.15866,-0.1287 0,0.0446 0.0608,0.043 0.13508,-0.004 0.0743,-0.0465 0.18371,-0.0864 0.24315,-0.0887 0.16612,-0.006 1.2573,-0.38954 1.62098,-0.56914 0.17831,-0.0881 0.43342,-0.25996 0.56692,-0.38203 0.1335,-0.12206 0.27491,-0.18974 0.31425,-0.1504 0.0393,0.0393 0.13679,0.0174 0.21656,-0.0488 0.0918,-0.0761 0.14502,-0.0799 0.14502,-0.0102 0,0.3158 -1.10785,1.03186 -2.10728,1.36203 -0.4938,0.16314 -0.95249,0.38577 -0.80309,0.3898 0.0338,5.6e-4 0.32557,-0.0767 0.6484,-0.1725 z m -0.95391,-0.41383 c 0.0441,-0.052 0.0267,-0.15888 -0.0385,-0.23749 -0.089,-0.10725 -0.0504,-0.25813 0.15441,-0.60431 0.47023,-0.79459 1.12961,-1.33253 2.2895,-1.86787 0.59436,-0.27431 1.00771,-0.42735 0.91856,-0.34009 -0.0892,0.0873 -0.55114,0.31802 -1.02663,0.51278 -0.6806,0.27879 -0.99671,0.48851 -1.4859,0.98584 -0.34176,0.34744 -0.62138,0.6896 -0.62138,0.76035 0,0.0707 0.25531,-0.12261 0.56735,-0.42969 0.49663,-0.48874 2.10032,-1.5035 2.20718,-1.39664 0.0215,0.0215 -0.26577,0.20034 -0.63831,0.39749 -0.72111,0.38162 -1.81202,1.24538 -1.81202,1.43472 0,0.0626 0.10942,0.013 0.24315,-0.1102 0.13373,-0.1232 0.73378,-0.54087 1.33344,-0.92817 0.99347,-0.64163 1.35708,-0.96316 1.74796,-1.54567 0.0762,-0.11352 0.0683,-0.0602 -0.0178,0.12061 -0.2125,0.44616 -0.72933,0.91088 -1.68577,1.51582 -0.44577,0.28194 -1.00094,0.66242 -1.23371,0.84552 -0.45769,0.36001 -0.7105,0.44853 -0.71313,0.24968 -8.4e-4,-0.0733 -0.043,-0.0602 -0.10093,0.0314 -0.13721,0.21689 -0.0197,0.36765 0.16624,0.21331 0.11131,-0.0924 0.15248,-0.0935 0.15248,-0.004 0,0.0674 0.27018,-0.0975 0.6004,-0.36649 0.33022,-0.26897 0.90161,-0.64081 1.26977,-0.82631 0.36815,-0.1855 0.82742,-0.50439 1.02058,-0.70863 0.19317,-0.20424 0.35122,-0.32492 0.35122,-0.26816 0,0.19041 -0.85209,0.8754 -1.4887,1.19676 -0.3468,0.17507 -0.90748,0.54389 -1.24595,0.8196 -0.33846,0.27571 -0.61538,0.46835 -0.61538,0.42809 0,-0.0403 -0.0851,-0.008 -0.18912,0.0716 -0.10401,0.0796 -0.15306,0.10219 -0.109,0.0502 z m 1.11452,-0.50224 c 0.0351,-0.0568 0.33994,-0.24813 0.67737,-0.4251 0.33743,-0.17697 0.73508,-0.40358 0.88367,-0.50358 0.23837,-0.16042 0.25108,-0.16108 0.10806,-0.006 -0.18947,0.20603 -1.76357,1.08709 -1.6691,0.93423 z m 1.77717,-0.73366 c 0,-0.0521 0.0809,-0.16158 0.17979,-0.24315 0.16303,-0.13449 0.16771,-0.12564 0.0502,0.0948 -0.13399,0.25146 -0.23002,0.31338 -0.23002,0.14831 z m 0.49501,-0.35429 c 0.097,-0.18758 0.24072,-0.51584 0.31936,-0.72944 0.0786,-0.21362 0.14594,-0.31544 0.14955,-0.22629 0.008,0.18768 -0.49146,1.29679 -0.58349,1.29679 -0.034,0 0.0176,-0.15348 0.11458,-0.34106 z m 0.48611,-1.34296 c 0.005,-0.1259 0.0308,-0.1515 0.0653,-0.0653 0.0312,0.078 0.0274,0.17121 -0.009,0.20712 -0.0359,0.0359 -0.0615,-0.0279 -0.0567,-0.14183 z m -4.41251,2.71198 c -0.0347,-0.18158 0.005,-0.29046 0.12243,-0.33552 0.0956,-0.0367 0.15056,-0.10433 0.12214,-0.15031 -0.0284,-0.046 0.0243,-0.23583 0.11707,-0.42188 0.27479,-0.55084 -0.0488,-1.52166 -0.79971,-2.39919 -0.22051,-0.25769 -0.3181,-0.43536 -0.21806,-0.39701 0.16619,0.0637 0.16489,0.0224 -0.0159,-0.50293 -0.34396,-0.99973 -0.78892,-1.56255 -1.92258,-2.43179 l -0.46057,-0.35315 -0.17345,0.41513 c -0.22763,0.5448 -0.14908,1.54058 0.17589,2.22983 0.27505,0.58333 0.41046,0.6336 0.17247,0.064 -0.11308,-0.27066 -0.13163,-0.52948 -0.0689,-0.96216 0.0472,-0.32555 0.0918,-0.48521 0.0992,-0.35479 0.007,0.13042 0.13293,0.37357 0.27891,0.54033 l 0.26543,0.3032 -0.25765,-0.64839 c -0.1417,-0.35661 -0.28454,-0.79428 -0.3174,-0.97259 -0.0589,-0.31971 -0.0581,-0.31933 0.0619,0.027 0.0669,0.19317 0.17975,0.35122 0.25077,0.35122 0.071,0 0.18576,0.12431 0.25499,0.27625 0.0692,0.15195 0.17127,0.2482 0.22676,0.21391 0.10385,-0.0642 0.59009,0.58331 0.91759,1.22191 0.10189,0.19869 0.21066,0.33585 0.24172,0.3048 0.12481,-0.12482 -0.67431,-1.39651 -1.16736,-1.8577 -0.28931,-0.27062 -0.52602,-0.52006 -0.52602,-0.55431 0,-0.13464 0.93852,0.78552 1.27212,1.24723 0.35402,0.48998 0.65412,1.25611 0.53765,1.37258 -0.10772,0.10772 -0.61053,-0.28924 -0.55376,-0.43718 0.0573,-0.14943 -0.59509,-1.29571 -0.68584,-1.20496 -0.0292,0.0292 0.0934,0.32337 0.27236,0.6538 0.17897,0.33043 0.30335,0.60078 0.2764,0.60078 -0.14213,0 -0.77897,-0.38467 -1.03788,-0.62691 -0.16345,-0.15293 -0.29718,-0.22843 -0.29718,-0.16778 0,0.0607 0.0299,0.14022 0.0665,0.17681 0.0366,0.0366 0.0808,0.25137 0.0982,0.47729 0.06,0.77735 0.46195,1.56909 1.30571,2.57206 0.45001,0.53493 0.93624,1.20358 1.08052,1.48591 0.29583,0.57885 0.35979,0.63364 0.2854,0.24449 z m -0.30748,-0.72788 c -0.11303,-0.251 -0.548,-0.82268 -0.96658,-1.27039 -0.80389,-0.85983 -1.17551,-1.5059 -1.27558,-2.21763 -0.0569,-0.40474 -0.0503,-0.41849 0.10402,-0.21613 0.0906,0.11887 0.20891,0.20434 0.26283,0.18992 0.15901,-0.0425 1.0999,0.51098 1.49046,0.87681 0.5039,0.47198 1.01174,1.49905 0.92894,1.87873 -0.0498,0.22842 -0.0382,0.25928 0.0505,0.13441 0.19797,-0.27868 0.13878,0.0753 -0.10037,0.60029 -0.12036,0.2642 -0.23455,0.48036 -0.25375,0.48036 -0.0192,0 -0.12741,-0.20536 -0.24045,-0.45637 z m 0.45192,-0.62428 c 0.0258,-0.61612 -0.47219,-1.60785 -1.02634,-2.04379 -0.51408,-0.40442 -1.30612,-0.80081 -1.30612,-0.65367 0,0.0642 -0.0486,0.0866 -0.10806,0.0499 -0.0594,-0.0367 -0.10807,-0.0101 -0.10807,0.0592 0,0.0693 0.0682,0.0998 0.15153,0.0678 0.0833,-0.032 0.18466,-0.025 0.22514,0.0155 0.0405,0.0405 0.10913,0.0736 0.15254,0.0736 0.0434,0 0.35725,0.19168 0.69741,0.42595 0.75058,0.51694 1.10907,1.03131 0.93954,1.34808 -0.0903,0.16865 -0.0681,0.29346 0.10153,0.57168 0.11936,0.19576 0.21673,0.40456 0.21639,0.464 -3.2e-4,0.0594 -0.12909,-0.11078 -0.28612,-0.37824 -0.4299,-0.73223 -1.93932,-2.5051 -1.80204,-2.11656 0.0528,0.1495 0.0355,0.18365 -0.0623,0.12319 -0.0843,-0.0521 -0.0651,0.0522 0.0508,0.27631 0.2335,0.45154 1.32766,1.6085 1.49218,1.57782 0.0674,-0.0126 0.11617,0.0603 0.1083,0.16203 -0.008,0.10167 0.0347,0.17462 0.0946,0.16209 0.0599,-0.0125 0.1334,0.0448 0.1634,0.12734 0.0336,0.0924 0.007,0.12094 -0.0684,0.0742 -0.0885,-0.0547 -0.0869,0.003 0.006,0.20638 0.1175,0.2579 0.13814,0.26551 0.2383,0.0879 0.0603,-0.10693 0.11883,-0.41325 0.13004,-0.68071 z m -1.44092,-0.99184 c -0.37147,-0.42602 -0.67541,-0.81916 -0.67541,-0.87366 0,-0.0545 0.18644,0.13627 0.41431,0.42393 0.22787,0.28765 0.49799,0.59196 0.60026,0.67622 0.16746,0.13798 0.44316,0.55006 0.36707,0.54865 -0.017,-3.3e-4 -0.33475,-0.34913 -0.70623,-0.77514 z m 1.21574,0.55958 c -0.0406,-0.12783 -0.0495,-0.25673 -0.0197,-0.28645 0.0297,-0.0297 0.0872,0.0506 0.1278,0.17838 0.0406,0.12784 0.0495,0.25674 0.0197,0.28646 -0.0297,0.0297 -0.0872,-0.0506 -0.1278,-0.17839 z m -0.16375,-0.45099 c 0.004,-0.15362 -0.56714,-0.73791 -1.08172,-1.1076 -0.29569,-0.21243 -0.53761,-0.36251 -0.53761,-0.33352 0,0.029 0.24031,0.31807 0.53403,0.6424 0.29371,0.32433 0.6173,0.71678 0.71907,0.87212 0.13921,0.21245 0.20729,0.24735 0.27481,0.14089 0.0494,-0.0778 0.0905,-0.17428 0.0914,-0.21429 z m -0.69452,-0.50056 c -0.5272,-0.60748 -0.52813,-0.60984 -0.0725,-0.18314 0.38395,0.35957 0.75444,0.82721 0.63738,0.80452 -0.017,-0.003 -0.27115,-0.28291 -0.56489,-0.62138 z m -2.25641,-2.65066 c -0.0353,-0.25756 -0.0218,-0.61012 0.0301,-0.78347 0.0751,-0.25109 0.0961,-0.15587 0.10354,0.4683 0.005,0.43091 -0.008,0.78348 -0.0301,0.78348 -0.0216,0 -0.0682,-0.21074 -0.10353,-0.46831 z m 1.00808,0.0913 c -0.3632,-0.6348 -0.49185,-0.76455 -0.32627,-0.32906 0.21703,0.57084 0.57808,1.18583 0.62142,1.0585 0.0251,-0.0736 -0.10775,-0.40189 -0.29515,-0.72944 z m 3.43776,-0.33874 c 0.0405,0.0244 0.0842,-0.21301 0.097,-0.52756 0.0276,-0.6768 0.31186,-1.47403 0.79301,-2.22383 0.2716,-0.42326 0.53516,-0.65049 1.19782,-1.03271 0.46728,-0.26952 0.8496,-0.50762 0.8496,-0.5291 0,-0.0488 -0.68327,0.23376 -1.19609,0.49459 -0.56422,0.28697 -1.12174,0.95947 -1.3957,1.68354 -0.24269,0.64138 -0.54509,2.07344 -0.52215,2.47263 0.007,0.12591 0.0313,0.0913 0.0576,-0.0829 0.0249,-0.16446 0.0784,-0.27906 0.11889,-0.25468 z m 1.15628,-0.21724 c 0.52343,-0.34621 1.34889,-1.12495 1.34889,-1.27256 0,-0.059 -0.18653,0.0868 -0.4145,0.32403 -0.22797,0.23726 -0.66563,0.59253 -0.97259,0.7895 -0.30695,0.19697 -0.55809,0.37738 -0.55809,0.4009 0,0.10253 0.19548,0.0232 0.59629,-0.24187 z m -0.6544,-0.2861 c 0.051,0.0464 0.0574,0.0231 0.0142,-0.052 -0.0771,-0.13382 0.49173,-1.25258 0.70331,-1.38335 0.0582,-0.036 0.0784,-0.1517 0.045,-0.25718 -0.0337,-0.106 0.0127,-0.25287 0.10366,-0.32834 0.0905,-0.0751 0.1643,-0.19139 0.164,-0.2584 -3.2e-4,-0.067 -0.12012,0.0241 -0.26627,0.20235 -0.27275,0.33274 -0.35651,0.55034 -0.16669,0.43302 0.0624,-0.0386 0.0786,0.007 0.039,0.11075 -0.0486,0.12661 -0.0904,0.14022 -0.14745,0.048 -0.049,-0.0793 -0.15311,0.0636 -0.27073,0.37157 -0.10511,0.27523 -0.21555,0.47597 -0.24542,0.4461 -0.0299,-0.0299 0.10241,-0.37266 0.29395,-0.76174 0.26116,-0.5305 0.51514,-0.84488 1.01549,-1.25701 0.91356,-0.75249 0.9505,-0.7989 0.42708,-0.53655 -0.71899,0.36035 -1.19266,0.84356 -1.53128,1.56208 -0.40089,0.85069 -0.76025,2.45826 -0.40746,1.8228 0.0753,-0.13559 0.17861,-0.20854 0.22963,-0.1621 z m 1.35096,-0.88342 c 0.20708,-0.24951 0.0199,-0.43086 -0.22038,-0.21346 -0.11157,0.10097 -0.17682,0.22571 -0.14499,0.27721 0.085,0.13757 0.21748,0.11446 0.36537,-0.0637 z m -0.32026,0.008 c 0,-0.0224 0.0851,-0.10754 0.18911,-0.18911 0.1714,-0.13442 0.17522,-0.1306 0.0408,0.0408 -0.14117,0.18001 -0.22991,0.23726 -0.22991,0.14831 z m -4.91698,-0.82538 c 0.39244,-0.0883 0.37751,-0.0924 -0.1621,-0.0444 -0.7249,0.0644 -1.6333,-0.0983 -2.20138,-0.39441 -0.54336,-0.28321 -1.17132,-0.76157 -1.09714,-0.83576 0.0316,-0.0316 0.17518,0.0533 0.31914,0.18849 0.14396,0.13524 0.30491,0.21921 0.35767,0.1866 0.0528,-0.0326 0.33599,0.007 0.62938,0.0871 0.29339,0.0805 0.46018,0.15072 0.37063,0.15604 -0.0896,0.005 -0.32948,-0.0381 -0.53317,-0.0966 -0.60305,-0.17295 -0.51867,-0.0266 0.16621,0.28831 0.58479,0.26886 0.74028,0.29193 1.86955,0.27736 0.67744,-0.009 1.27153,-0.0557 1.32021,-0.10441 0.0487,-0.0486 -0.24312,-0.0845 -0.64844,-0.0797 -0.75783,0.009 -1.47495,-0.13674 -0.82283,-0.16729 0.17831,-0.008 0.42146,-0.0612 0.54033,-0.11732 0.19,-0.0898 0.18347,-0.0962 -0.054,-0.053 -0.1486,0.027 -0.58626,0.0745 -0.97259,0.10555 l -0.70243,0.0565 0.59436,-0.10545 c 0.76804,-0.13627 0.95371,-0.22689 0.31068,-0.15163 -0.62311,0.0729 -1.76659,-0.19843 -2.61342,-0.62018 -0.55076,-0.27429 -0.61386,-0.28671 -0.51461,-0.10127 0.1562,0.29186 0.95103,0.96284 1.43784,1.21379 0.75112,0.3872 1.58864,0.49572 2.40613,0.31176 z m -1.43187,-0.39703 c 0.10401,-0.0272 0.27421,-0.0272 0.37823,0 0.10401,0.0272 0.0189,0.0494 -0.18912,0.0494 -0.20803,0 -0.29313,-0.0223 -0.18911,-0.0494 z m 2.01749,-0.17665 0.34029,-0.14308 -0.27994,-0.12754 c -0.15396,-0.0702 -0.25231,-0.17225 -0.21854,-0.2269 0.0713,-0.11528 -0.52806,-0.57358 -0.62426,-0.47737 -0.0354,0.0354 -0.27039,-0.0181 -0.52219,-0.11881 -0.26022,-0.10413 -1.02008,-0.22664 -1.76055,-0.28386 -0.7165,-0.0554 -1.4243,-0.12836 -1.57289,-0.16219 -0.20989,-0.0478 -0.24162,-0.0325 -0.14221,0.0687 0.0704,0.0716 0.31352,0.14427 0.54033,0.16148 0.93656,0.0711 1.85804,0.17582 2.51965,0.28645 0.54498,0.0911 0.65398,0.13804 0.48629,0.2093 -0.16502,0.0701 -0.13946,0.08 0.10807,0.0417 0.1783,-0.0275 0.47008,0.0217 0.64839,0.10952 0.32264,0.1589 0.0794,0.1505 -0.31491,-0.0108 -0.13248,-0.0542 -0.18225,-0.0449 -0.13844,0.026 0.0462,0.0748 -0.0924,0.0739 -0.4273,-0.003 -0.38771,-0.0887 -0.45171,-0.13154 -0.29381,-0.19654 0.11243,-0.0463 -0.0615,-0.0617 -0.39249,-0.0349 -0.44402,0.036 -0.52602,0.0231 -0.3242,-0.0513 0.19457,-0.0717 0.0736,-0.0859 -0.43226,-0.0508 -0.45839,0.0318 -0.62734,0.0157 -0.4863,-0.0465 0.16694,-0.0736 0.0808,-0.10614 -0.37822,-0.14295 -0.3269,-0.0262 -0.61123,-0.0359 -0.63185,-0.0216 -0.0206,0.0143 0.15105,0.12222 0.38148,0.23978 0.70275,0.35852 1.66517,0.58847 2.57377,0.61494 0.47549,0.0138 0.9861,0.0741 1.13469,0.13383 l 0.27017,0.10864 -0.37823,0.11061 c -0.20803,0.0608 -0.29871,0.115 -0.20152,0.12036 0.0972,0.006 0.32983,-0.0547 0.51698,-0.13333 z m -1.96346,-0.46882 c 0.0743,-0.03 0.19587,-0.03 0.27016,0 0.0743,0.03 0.0135,0.0545 -0.13508,0.0545 -0.14859,0 -0.20938,-0.0245 -0.13508,-0.0545 z m -0.67541,-0.14456 c -0.13623,-0.0585 -0.15621,-0.0929 -0.054,-0.0929 0.0892,0 0.25936,0.0418 0.37823,0.0929 0.13624,0.0585 0.15621,0.0929 0.054,0.0929 -0.0892,0 -0.25936,-0.0418 -0.37823,-0.0929 z m 3.23981,-0.65189 c -0.0995,-0.16104 0.0558,-0.76596 0.17738,-0.69082 0.34066,0.21054 -0.34543,-1.29176 -1.05826,-2.31724 -0.26309,-0.37847 -0.45929,-0.70719 -0.436,-0.73048 0.0639,-0.0639 1.24564,1.72646 1.44984,2.19657 0.12986,0.29896 0.1902,0.35816 0.22165,0.21748 0.0534,-0.2389 -0.32555,-0.98277 -0.74277,-1.45796 -0.17166,-0.19551 -0.31009,-0.39025 -0.30761,-0.43276 0.008,-0.13384 0.7623,0.76981 0.97313,1.16546 0.11084,0.20803 0.20369,0.30265 0.20631,0.21027 0.009,-0.32327 -0.62103,-1.15016 -1.34416,-1.76364 -0.40119,-0.34036 -0.75149,-0.59678 -0.77844,-0.56983 -0.0623,0.0623 0.30448,0.78318 0.76734,1.50842 0.45383,0.71107 0.9282,1.64657 0.92639,1.82693 -8.5e-4,0.0763 -0.11851,-0.10448 -0.26164,-0.40166 -0.31934,-0.66299 -0.35823,-0.58494 -0.0578,0.11597 0.37334,0.87096 0.18182,0.70348 -0.24844,-0.21727 -0.24435,-0.52288 -0.32093,-0.76326 -0.19152,-0.60113 0.33296,0.41716 0.25954,0.13388 -0.11766,-0.45392 -0.34101,-0.53142 -0.54038,-0.64394 -0.31309,-0.1767 0.11726,0.24104 0.1152,0.24293 -0.0458,0.042 -0.0957,-0.11943 -0.13997,-0.30057 -0.10245,-0.41878 0.0476,-0.15005 0.028,-0.18475 -0.0702,-0.12406 -0.0885,0.0547 -0.10934,0.0405 -0.0593,-0.0403 0.0423,-0.0685 0.007,-0.22435 -0.0783,-0.34632 -0.1493,-0.21315 -0.15814,-0.20667 -0.22832,0.16744 -0.0581,0.30984 -0.002,0.54226 0.27315,1.14018 0.19039,0.41306 0.41189,0.80556 0.49223,0.87224 0.22447,0.18629 0.1737,-0.0298 -0.10513,-0.4475 -0.27162,-0.40691 -0.61614,-1.21739 -0.60876,-1.43213 0.002,-0.0731 0.11814,0.14037 0.25695,0.47437 0.13881,0.334 0.45432,0.94717 0.70113,1.36261 0.24681,0.41545 0.46741,0.84731 0.49021,0.95969 0.0228,0.11239 0.0751,0.3016 0.11629,0.42047 0.0412,0.11887 -0.0287,0.0552 -0.15516,-0.14158 -0.1265,-0.19674 -0.20782,-0.39358 -0.18073,-0.43742 0.0271,-0.0438 -8.4e-4,-0.15033 -0.0619,-0.23665 -0.0906,-0.12795 -0.0999,-0.12201 -0.0503,0.0322 0.10776,0.33497 -0.0135,0.20477 -0.50343,-0.54033 -0.50718,-0.77141 -0.77343,-1.39038 -0.94132,-2.18833 l -0.10232,-0.4863 0.056,0.57799 c 0.0802,0.82733 0.3014,1.32425 1.16946,2.62709 0.55236,0.82901 0.7918,1.10893 0.85435,0.99875 0.0478,-0.0842 0.0563,-0.20251 0.019,-0.26292 z m -1.51616,0.11713 c -0.16402,-0.16374 -1.35033,-0.4391 -1.8274,-0.42416 -0.34536,0.0108 -0.28959,0.0327 0.26687,0.10472 0.3869,0.05 0.89751,0.16208 1.13469,0.24888 0.53107,0.19437 0.55357,0.19809 0.42584,0.0706 z m 0.8357,-1.21771 c -0.0775,-0.0775 -0.12788,-0.0839 -0.12788,-0.0162 0,0.14424 0.1278,0.27204 0.19993,0.19992 0.0307,-0.0307 -0.002,-0.11338 -0.072,-0.18371 z m -0.72224,-4.38025 c 0,-0.46063 0.0336,-1.03203 0.0746,-1.26977 l 0.0746,-0.43226 -0.14734,0.43226 c -0.20426,0.59922 -0.21203,2.10728 -0.0109,2.10728 0.005,0 0.009,-0.37688 0.009,-0.83751 z m 2.20717,5.99096 c 0.14409,-0.15978 0.21703,-0.29233 0.1621,-0.29456 -0.0549,-0.002 0.0946,-0.17171 0.33237,-0.37662 0.23775,-0.20492 0.37434,-0.37329 0.30356,-0.37417 -0.0708,-5.7e-4 -0.15736,0.0448 -0.19238,0.10142 -0.035,0.0567 -0.22026,0.20788 -0.41163,0.33603 -0.19137,0.12815 -0.0173,-0.0705 0.3869,-0.44148 0.69851,-0.64113 1.09367,-1.23569 1.43278,-2.15578 0.0773,-0.20974 0.14399,-0.29763 0.14817,-0.19531 0.0122,0.29789 -0.4663,1.28295 -0.89388,1.84019 -0.4515,0.58844 -0.38389,0.68107 0.11831,0.16211 0.41298,-0.42679 0.73649,-1.13372 0.93616,-2.04573 0.0822,-0.37561 0.15383,-0.56136 0.15909,-0.41276 0.0271,0.76534 -0.5245,2.04547 -1.13823,2.64152 -0.21764,0.21137 -0.34949,0.3843 -0.293,0.3843 0.2199,0 0.90612,-0.84197 1.18634,-1.4556 0.24245,-0.53092 0.30342,-0.84333 0.3444,-1.7649 l 0.0498,-1.11979 -0.9061,0.68983 c -0.49836,0.37941 -1.07453,0.91604 -1.28039,1.1925 -0.20585,0.27647 -0.39469,0.48226 -0.41963,0.45732 -0.0981,-0.0981 0.80393,-1.14224 1.2714,-1.47182 0.27231,-0.19198 0.68962,-0.52149 0.92737,-0.73223 l 0.43226,-0.38317 0.0312,1.00903 c 0.0539,1.74288 -0.48207,2.95339 -1.67637,3.78591 -0.34333,0.23932 -0.77013,0.54293 -0.94843,0.6747 l -0.3242,0.23957 z m 0.67312,-0.51842 c 0.17605,-0.12536 0.29503,-0.25298 0.2644,-0.28362 -0.0306,-0.0307 -0.20737,0.0719 -0.39274,0.22792 -0.40386,0.33983 -0.32111,0.37573 0.12834,0.0557 z m -2.00428,-4.59988 c -0.0846,-0.26787 -0.2836,-2.23053 -0.23146,-2.28267 0.0229,-0.0229 0.0679,0.16946 0.1,0.42752 0.0321,0.25804 0.10281,0.80958 0.15717,1.22564 0.0994,0.76074 0.0898,0.99536 -0.0257,0.62951 z m -0.38806,-2.69176 c 8.4e-4,-0.17336 0.0482,-0.38814 0.10501,-0.47729 0.0704,-0.11039 0.0822,-0.0242 0.0371,0.27016 -0.0819,0.53418 -0.14428,0.62513 -0.14209,0.20713 z"
         id="path872" />
    </g>
  </g>
</svg>
