<?xml version="1.0" encoding="UTF-8" standalone="no"?>
<svg
   xmlns:dc="http://purl.org/dc/elements/1.1/"
   xmlns:cc="http://creativecommons.org/ns#"
   xmlns:rdf="http://www.w3.org/1999/02/22-rdf-syntax-ns#"
   xmlns:svg="http://www.w3.org/2000/svg"
   xmlns="http://www.w3.org/2000/svg"
   xmlns:sodipodi="http://sodipodi.sourceforge.net/DTD/sodipodi-0.dtd"
   xmlns:inkscape="http://www.inkscape.org/namespaces/inkscape"
   width="424.03885mm"
   height="127.51566mm"
   viewBox="0 0 424.03884 127.51566"
   version="1.1"
   id="svg8"
   inkscape:version="1.0.2-2 (e86c870879, 2021-01-15)"
   sodipodi:docname="logo_H.svg"
   inkscape:export-filename="C:\Users\Suraj Goel\Documents\GitHub\nanhepanchhifoundation.github.io\imgs\logo\logo_h.png"
   inkscape:export-xdpi="36"
   inkscape:export-ydpi="36">
  <defs
     id="defs2" />
  <sodipodi:namedview
     id="base"
     pagecolor="#ffffff"
     bordercolor="#666666"
     borderopacity="1.0"
     inkscape:pageopacity="0"
     inkscape:pageshadow="2"
     inkscape:zoom="1.4"
     inkscape:cx="436.76098"
     inkscape:cy="151.70929"
     inkscape:document-units="mm"
     inkscape:current-layer="layer1"
     inkscape:document-rotation="0"
     showgrid="false"
     inkscape:window-width="1920"
     inkscape:window-height="1017"
     inkscape:window-x="-8"
     inkscape:window-y="-8"
     inkscape:window-maximized="1"
     fit-margin-top="0"
     fit-margin-left="0"
     fit-margin-right="0"
     fit-margin-bottom="0" />
  <metadata
     id="metadata5">
    <rdf:RDF>
      <cc:Work
         rdf:about="">
        <dc:format>image/svg+xml</dc:format>
        <dc:type
           rdf:resource="http://purl.org/dc/dcmitype/StillImage" />
        <dc:title></dc:title>
      </cc:Work>
    </rdf:RDF>
  </metadata>
  <g
     inkscape:groupmode="layer"
     id="layer2"
     inkscape:label="Layer 2"
     style="display:inline;opacity:1"
     transform="translate(-44.3967,-102.2253)" />
  <g
     inkscape:label="Layer 1"
     inkscape:groupmode="layer"
     id="layer1"
     transform="translate(-44.3967,-102.2253)">
    <path
       style="fill:#000000;stroke-width:0.264583"
       id="path933"
       d="" />
    <path
       style="fill:#000000;stroke-width:0.264583"
       id="path941"
       d="" />
    <path
       style="fill:#000000;stroke-width:0.264583"
       id="path939"
       d="" />
    <path
       style="fill:#000000;stroke-width:0.264583"
       id="path937"
       d="" />
    <path
       style="fill:#ffffff;stroke-width:0.55145"
       d="m 217.01019,208.19281 c -0.006,-0.41156 -0.23035,-1.09873 -0.50141,-1.52703 -0.41669,-0.65828 -0.63477,-0.63696 -1.40957,0.13773 -1.03061,1.03058 -2.25666,1.19237 -2.7679,0.36513 -0.18738,-0.30329 0.18792,-0.55144 0.834,-0.55144 1.58848,0 2.78976,-1.2552 2.15737,-2.25424 -0.40654,-0.64224 -0.49445,-0.62086 -0.50141,0.12198 -0.008,0.92393 -2.89883,1.87719 -3.20125,1.05587 -0.0878,-0.23863 -1.26663,-0.36011 -2.61941,-0.26967 -1.35274,0.0905 -2.45953,-0.0288 -2.45953,-0.26479 0,-0.23622 -1.86117,-0.30984 -4.13588,-0.16389 -2.32192,0.14894 -4.1359,0.0446 -4.1359,-0.23836 0,-0.27704 -0.6685,-0.55902 -1.48558,-0.62666 -0.81707,-0.0676 -1.67528,-0.42984 -1.90713,-0.80495 -0.33461,-0.5414 -0.5627,-0.54086 -1.10623,0.002 -0.85068,0.8507 -4.12534,0.90129 -4.63809,0.0718 -0.20846,-0.3372 -0.0369,-0.82556 0.38105,-1.08523 0.45132,-0.2804 0.83857,-0.24343 0.95351,0.091 0.1065,0.30966 0.48211,0.16843 0.83477,-0.31387 0.53101,-0.72622 2.29806,-0.91872 10.284,-1.1203 5.30355,-0.13373 12.09044,-0.39472 15.08205,-0.57959 4.12883,-0.25518 5.34172,-0.17831 5.03439,0.31889 -0.30896,0.49989 -0.12946,0.50771 0.75766,0.0331 0.97613,-0.52242 4.67153,-0.77928 9.72386,-0.67593 1.30101,0.0267 4.67514,-0.2066 14.06196,-0.97285 8.99759,-0.73431 13.39462,-0.74951 12.95912,-0.0448 -0.18738,0.30333 -0.0926,0.55148 0.2106,0.55148 0.3033,0 0.7028,-0.24502 0.88783,-0.54427 0.19432,-0.31439 2.53728,-0.47894 5.54707,-0.3896 2.86584,0.0849 5.21064,-0.0401 5.21064,-0.27848 0,-0.2381 10.36039,-0.30608 23.02311,-0.15081 12.66265,0.15508 24.63603,0.30013 26.60746,0.32204 1.97146,0.0213 4.98431,-0.11638 6.69531,-0.30726 2.37366,-0.26478 3.30551,-0.15241 3.93235,0.4744 0.45184,0.45185 0.96911,0.6739 1.14955,0.49347 0.18044,-0.18071 0.70628,-0.016 1.16856,0.36949 0.46228,0.38365 0.84051,0.47694 0.84051,0.20714 0,-0.26967 1.45574,-0.49031 3.23501,-0.49031 1.77928,0 3.57839,-0.27987 3.99801,-0.62196 1.24843,-1.01766 24.69048,-1.99503 38.53738,-1.60674 14.56343,0.4084 26.16561,0.34794 29.67892,-0.15454 1.37764,-0.19699 5.25164,-0.17991 8.60886,0.0385 3.35721,0.21807 9.70224,0.50159 14.10004,0.6299 4.39781,0.1284 9.80941,0.53017 12.02572,0.89294 2.21633,0.36277 5.51103,0.57623 7.32162,0.47434 3.96664,-0.22314 4.23504,0.71378 0.77594,2.70868 -1.91703,1.10558 -2.87734,1.25763 -7.43989,1.17795 -2.88134,-0.0502 -6.35549,0.0721 -7.72032,0.27154 -1.55763,0.22795 -3.81608,0.0459 -6.06596,-0.48879 -3.98769,-0.9476 -3.96972,-0.94573 -6.47957,-0.6756 -0.98568,0.10623 -1.79221,-0.0379 -1.79221,-0.31983 0,-0.28198 -0.41131,-0.17217 -0.914,0.24423 -0.50269,0.41624 -2.17771,0.78617 -3.72228,0.82201 -1.54457,0.036 -4.91758,0.23944 -7.49562,0.45265 -8.83918,0.73065 -14.88918,0.92558 -14.88931,0.47977 -1.9e-4,-0.5292 -20.70693,-0.41074 -26.04268,0.14894 -2.55615,0.26815 -3.95212,0.18738 -4.49104,-0.25998 -0.61085,-0.50697 -0.97688,-0.45412 -1.6725,0.24156 -0.68856,0.68855 -1.23338,0.77103 -2.40212,0.36371 -0.83136,-0.28979 -1.44949,-0.80602 -1.37369,-1.14723 0.19726,-0.88791 -1.33407,-0.76535 -2.85035,0.22822 -0.71228,0.46671 -1.51006,0.79889 -1.77281,0.73815 -0.26266,-0.0606 -1.16114,0.17189 -1.99642,0.51724 -1.12694,0.46577 -1.86952,0.46783 -2.87881,0.008 -1.03296,-0.47064 -1.5581,-0.4554 -2.18329,0.0635 -0.47397,0.39338 -2.99587,0.77484 -5.94443,0.89918 -2.81667,0.11877 -6.48607,0.44175 -8.1542,0.71769 -2.00528,0.33168 -3.15224,0.31083 -3.38492,-0.0617 -0.19352,-0.30979 -0.65558,-0.37564 -1.02669,-0.14627 -0.37113,0.22928 -0.85561,0.12438 -1.07668,-0.2333 -0.30707,-0.49685 -0.75731,-0.48838 -1.90791,0.036 -1.2158,0.55395 -1.59135,0.54802 -1.94904,-0.0304 -0.31869,-0.51569 -0.55105,-0.54199 -0.82809,-0.094 -0.44771,0.72442 -5.9805,0.68711 -7.97878,-0.0536 -0.7331,-0.27186 -1.47755,-0.29762 -1.65436,-0.0574 -0.1767,0.24022 -1.00287,0.51571 -1.8357,0.61199 -1.26809,0.14654 -1.45165,0.0134 -1.12946,-0.82767 0.36126,-0.94135 0.30203,-0.94901 -0.9673,-0.12545 -1.55823,1.01105 -6.04695,1.29236 -8.65137,0.54223 -0.98429,-0.28348 -1.91604,-0.30163 -2.0775,-0.0403 -0.37273,0.60308 -3.52698,0.53216 -3.91022,-0.0878 -0.37233,-0.60252 -2.42931,-0.6105 -2.42931,-0.0107 0,0.25171 -1.05466,0.41176 -2.34366,0.35581 -1.28902,-0.0558 -2.78127,0.12091 -3.31605,0.39294 -0.5828,0.29652 -1.3444,0.28648 -1.90104,-0.0241 -0.53252,-0.29799 -1.45043,-0.32135 -2.15158,-0.0547 -0.92574,0.352 -1.31083,0.23811 -1.5849,-0.4686 -0.33598,-0.86632 -0.41039,-0.8679 -1.03393,-0.0213 -0.85484,1.16028 -9.66663,1.43628 -10.38582,0.32533 -0.35117,-0.54245 -0.54082,-0.53596 -0.90714,0.031 -0.26318,0.4074 -1.39397,0.69055 -2.61938,0.65588 -1.18594,-0.0333 -2.9007,0.0579 -3.81058,0.2034 -0.90992,0.14547 -2.58894,0.0619 -3.73117,-0.18578 -1.39393,-0.30208 -2.91861,-0.19673 -4.63711,0.32047 -3.22743,0.97132 -4.90677,0.97613 -5.80312,0.016 -0.59545,-0.63741 -0.88687,-0.63437 -1.88522,0.0213 -1.0407,0.68187 -1.2237,0.66223 -1.54131,-0.1655 -0.19832,-0.51655 -0.12359,-1.17606 0.16602,-1.46559 0.28956,-0.28955 0.38533,-0.89413 0.21301,-1.34355 -0.21941,-0.57167 -0.53465,-0.29132 -1.04954,0.93324 -0.40479,0.96273 -0.98876,1.59416 -1.2977,1.40324 -0.30896,-0.19086 -0.56173,-0.0579 -0.56173,0.29577 0,0.35364 -0.37223,0.50016 -0.82717,0.32557 -0.50387,-0.19326 -0.82719,-0.001 -0.82719,0.49247 0,0.44544 -0.39875,0.80989 -0.88615,0.80989 -0.6163,0 -0.77429,-0.2939 -0.51879,-0.96505 0.27803,-0.73033 0.21167,-0.81064 -0.2725,-0.33024 -0.40287,0.39966 -1.19328,0.47614 -2.13362,0.2066 -0.99554,-0.2855 -1.83965,-0.17564 -2.53111,0.33023 -1.47846,1.08104 -3.58394,0.97883 -3.58394,-0.17403 0,-0.83728 -0.0755,-0.82938 -0.73846,0.0774 -0.68452,0.93615 -0.76484,0.9413 -1.09903,0.0705 -0.19832,-0.51674 -0.61445,-0.78256 -0.92486,-0.59073 -0.31037,0.19191 -0.42955,0.56683 -0.26478,0.83333 0.31892,0.51599 -1.55317,0.29228 -2.51177,-0.30016 -0.31448,-0.19431 -0.42755,-0.80792 -0.25117,-1.36348 0.17644,-0.55555 0.0563,-1.1735 -0.26698,-1.37321 -0.32313,-0.19966 -0.53221,-0.15855 -0.4646,0.0913 0.21461,0.79344 -0.69985,2.93612 -1.25299,2.93612 -0.29236,0 -0.68969,-0.41205 -0.88294,-0.91567 -0.30075,-0.78366 -0.41491,-0.74394 -0.79212,0.27575 -0.50262,1.35864 -1.57917,1.60696 -1.57917,0.36419 0,-0.45494 -0.36443,-0.82716 -0.80987,-0.82716 -0.49332,0 -0.6858,0.3233 -0.49244,0.82716 0.17456,0.45494 0.063,0.82719 -0.24797,0.82719 -0.31094,0 -0.95788,0.15081 -1.43761,0.33469 -0.52993,0.2034 -0.87562,0.0411 -0.88074,-0.41356 z m -19.29232,-6.60359 c 0,-0.30331 -0.24824,-0.39812 -0.55146,-0.21087 -0.30331,0.18738 -0.55146,0.58896 -0.55146,0.89223 0,0.30333 0.24824,0.3981 0.55146,0.21087 0.3033,-0.18738 0.55146,-0.58899 0.55146,-0.89226 z"
       id="path945" />
    <text
       xml:space="preserve"
       style="font-size:30.267px;line-height:1.15;font-family:'Berlin Sans FB';-inkscape-font-specification:'Berlin Sans FB';stroke-width:0.705961;stroke:#ffffff;stroke-opacity:1;"
       x="327.0434"
       y="152.15573"
       id="text955"><tspan
         sodipodi:role="line"
         id="tspan953"
         x="327.0434"
         y="152.15573"
         style="font-style:normal;font-variant:normal;font-weight:normal;font-stretch:normal;font-size:30.267px;font-family:'Beautifully Delicious Sans';-inkscape-font-specification:'Beautifully Delicious Sans';text-align:center;text-anchor:middle;fill:none;stroke:#ffffff;stroke-width:0.705961;stroke-opacity:1;">Nanhe Panchhi</tspan><tspan
         sodipodi:role="line"
         x="327.0434"
         y="187.27499"
         style="font-style:normal;font-variant:normal;font-weight:normal;font-stretch:normal;font-size:30.267px;font-family:'Beautifully Delicious Sans';-inkscape-font-specification:'Beautifully Delicious Sans';text-align:center;text-anchor:middle;fill:none;stroke:#ffffff;stroke-width:0.705961;stroke-opacity:1;"
         id="tspan844">Foundation</tspan></text>
    <path
       style="fill:#ffffff;stroke-width:0.176551"
       d="m 100.0765,204.89371 c -1.277994,-0.79547 -1.552605,-1.72455 -1.054854,-3.56888 0.168748,-0.62527 0.297083,-1.29574 0.285194,-1.48996 -0.156159,-2.54972 0.256635,-4.31537 1.46749,-6.27713 0.34446,-0.55807 0.6263,-1.17079 0.6263,-1.36158 0,-0.52309 1.13463,-2.68426 1.84492,-3.51406 0.34473,-0.40274 0.62758,-0.83881 0.62851,-0.96903 0.005,-0.64876 0.91366,-2.09722 1.81431,-2.89128 0.85369,-0.75268 2.76846,-2.03736 3.36519,-2.25783 0.14973,-0.0553 0.14521,-0.1371 -0.0171,-0.30915 -0.44646,-0.47325 -0.26092,-1.19083 0.44137,-1.70702 0.56034,-0.41185 0.65365,-0.57354 0.60735,-1.05226 -0.0301,-0.3111 0.033,-0.72959 0.14028,-0.92997 0.15111,-0.28236 0.13363,-0.45191 -0.0777,-0.75364 -0.14998,-0.21412 -0.27269,-0.5214 -0.27269,-0.68283 0,-0.16143 -0.20481,-0.4277 -0.45512,-0.59172 -0.25032,-0.16401 -0.53502,-0.52741 -0.63268,-0.80756 -0.0977,-0.28015 -0.30996,-0.54826 -0.47178,-0.59582 -1.13994,-0.33493 -11.478734,-2.77981 -12.447464,-2.94351 -1.747431,-0.29531 -5.175253,-0.11699 -6.914256,0.35978 -0.77682,0.21296 -3.279431,1.1288 -5.561353,2.03523 -5.54967,2.20441 -8.240254,2.85845 -13.104989,3.18564 -2.095137,0.14091 -3.074963,5.3e-4 -3.330517,-0.47688 -0.149605,-0.27955 -0.121979,-0.40047 0.134716,-0.5896 0.397266,-0.29273 3.276883,-1.14078 8.639968,-2.54452 3.946511,-1.03294 4.105163,-1.09161 4.855158,-1.79496 0.925717,-0.86814 3.188828,-2.38339 4.659446,-3.11969 1.171843,-0.58672 3.461238,-1.34479 4.658037,-1.5424 l 0.773911,-0.12777 -1.744943,-0.66049 c -2.182277,-0.82604 -4.014106,-1.7472 -9.056883,-4.55443 -7.086921,-3.94516 -10.767468,-6.27444 -11.113119,-7.03306 -0.607224,-1.33272 -0.01762,-1.35774 2.229628,-0.0947 6.855528,3.85328 14.905501,6.92428 23.324112,8.89797 2.017339,0.47295 2.746629,0.56287 4.523686,0.55772 1.950422,-0.006 2.237752,-0.0514 3.619302,-0.57509 0.82538,-0.31291 2.20009,-0.95148 3.05492,-1.41903 l 1.55425,-0.85009 -1.19544,-1.06417 c -1.17796,-1.04859 -1.19439,-1.07547 -1.12322,-1.83766 0.0397,-0.42542 0.0758,-1.33288 0.0803,-2.01659 0.007,-1.02725 -0.0605,-1.33023 -0.38689,-1.74517 -0.21723,-0.27615 -0.39496,-0.68533 -0.39496,-0.90925 0,-0.64673 -0.29087,-0.66606 -1.30362,-0.0866 -1.09947,0.62905 -1.73307,0.68261 -2.2274,0.18829 -0.43295,-0.43294 -0.43292,-0.43364 0.0496,-1.41241 l 0.39171,-0.79448 -1.235853,0.4167 c -1.734594,0.58485 -3.606092,0.48854 -5.224625,-0.26886 -1.997048,-0.93453 -3.084813,-2.21866 -2.058103,-2.42961 0.218487,-0.0448 0.71495,-0.14869 1.103266,-0.23064 l 0.706021,-0.149 -1.785366,-0.56598 c -1.95352,-0.61927 -3.137675,-1.46013 -3.349022,-2.3781 -0.107073,-0.46504 -0.08306,-0.48554 0.569424,-0.48583 0.660012,-3e-4 0.631766,-0.0257 -0.907754,-0.81754 -2.168005,-1.11502 -2.998955,-1.71488 -3.264918,-2.35698 -0.123941,-0.29923 -0.180226,-0.58919 -0.125062,-0.64436 0.05519,-0.0552 0.602754,0.0257 1.216864,0.17974 0.614111,0.15401 1.513183,0.32468 1.997942,0.37927 l 0.881375,0.0993 -0.971032,-0.42105 c -2.335564,-1.01274 -3.302799,-1.79877 -4.052041,-3.29292 -0.787082,-1.56961 -0.800854,-1.69763 -0.208978,-1.9428 0.582302,-0.24119 0.736076,-0.17923 3.731367,1.50335 0.92248,0.5182 2.136034,1.14434 2.696789,1.39144 l 1.019556,0.44925 -0.288611,-0.55811 c -0.39188,-0.75781 -0.956018,-2.42388 -0.956018,-2.82342 0,-0.57359 0.358649,-0.35529 1.599802,0.97373 1.566045,1.6769 2.83433,2.34334 6.227464,3.27234 3.675983,1.00642 4.965853,1.22159 9.143523,1.52519 5.5644,0.40438 7.97948,1.14938 10.14661,3.13002 1.61293,1.47413 3.36562,4.53709 4.46035,7.79485 l 0.51234,1.52466 0.57092,-0.8897 c 0.79366,-1.2368 1.97634,-2.23466 3.53196,-2.97999 1.19415,-0.57215 1.49764,-0.64089 3.09176,-0.7002 1.53752,-0.0572 1.94347,-0.007 3.11822,0.3876 1.03759,0.34832 1.5532,0.42937 2.22502,0.34982 0.50584,-0.0599 0.92009,-0.0297 0.98272,0.0715 0.0596,0.0964 -0.12203,0.80615 -0.40347,1.57735 -0.62461,1.71148 -1.00839,3.54009 -1.16049,5.5296 -0.30233,3.95453 -1.01293,6.5628 -2.45657,9.01703 -1.33027,2.26145 -3.48801,4.32461 -5.6753,5.42651 l -0.71948,0.36245 -0.29097,1.64525 c -0.16003,0.90489 -0.4159,2.63835 -0.56858,3.85213 -0.15268,1.2138 -0.39448,2.68358 -0.53733,3.26621 -0.58833,2.39952 -2.14818,4.671 -4.09248,5.95957 -0.65617,0.43486 -2.01324,1.32584 -3.0157,1.97996 -3.60922,2.35503 -6.14815,5.28819 -8.6772,10.02453 -0.50552,0.94676 -1.02406,1.72137 -1.15229,1.72137 -0.39445,0 -0.69873,-2.34347 -0.49286,-3.79585 0.0964,-0.67971 0.15353,-1.26275 0.12703,-1.29562 -0.064,-0.0794 -2.58447,3.09547 -3.68426,4.64089 -0.47959,0.67389 -1.15623,1.7453 -1.50366,2.38089 -0.34743,0.63561 -0.74952,1.17717 -0.89354,1.20349 -0.14402,0.0263 -0.5002,-0.1005 -0.79151,-0.28185 z m 0.95754,-0.86575 c 0.41953,-0.92698 2.21707,-3.49007 3.9794,-5.67422 0.9746,-1.20787 2.31215,-2.87824 2.97234,-3.71196 2.25492,-2.84761 5.42272,-5.73456 7.39839,-6.74247 1.21832,-0.62153 0.92953,-0.23711 -0.77445,1.03095 -2.03133,1.51166 -4.02133,3.36299 -5.31632,4.94585 -1.34049,1.63847 -1.89136,3.25856 -1.88665,5.54852 l 0.004,1.6461 0.87071,-1.64024 c 2.46736,-4.64799 5.51811,-7.88811 9.93733,-10.55415 0.94734,-0.57153 2.03986,-1.31895 2.42782,-1.66096 0.68346,-0.6025 0.71128,-0.67123 0.89485,-2.21078 0.10418,-0.87393 0.25074,-4.21076 0.32567,-7.41515 0.13175,-5.6355 0.1515,-5.8729 0.60316,-7.25329 0.29008,-0.88657 0.84069,-1.9855 1.45375,-2.9014 l 0.9868,-1.47431 -0.29014,-1.03407 c -0.33355,-1.18873 -0.38311,-3.53893 -0.10086,-4.78307 0.65333,-2.87997 3.01769,-5.34614 6.04279,-6.30299 0.89477,-0.28303 1.52629,-0.62011 2.04805,-1.09318 l 0.75435,-0.68397 -0.66296,-0.27701 c -1.72188,-0.71944 -4.62014,-0.42814 -6.51253,0.65457 -1.74509,0.99844 -3.60405,3.49236 -3.35194,4.49686 0.1056,0.42077 0.0775,0.43677 -0.76781,0.43677 -1.37669,0 -2.41551,0.28637 -7.05969,1.94613 -5.11501,1.82804 -6.03277,2.2133 -9.21541,3.86844 -4.89639,2.54641 -6.358659,2.71759 -12.02646,1.40788 -7.605938,-1.75758 -15.049266,-4.5432 -21.706547,-8.12357 -1.425662,-0.76672 -2.641932,-1.39405 -2.702828,-1.39405 -0.75133,0 4.089248,3.02491 10.944564,6.83934 6.095684,3.39175 8.826125,4.63898 11.726374,5.35649 0.833226,0.20613 1.585329,0.44115 1.671348,0.52226 0.370714,0.34958 -4.127563,2.65885 -7.670236,3.93768 -2.711744,0.97887 -5.271267,1.73805 -10.229541,3.03417 -4.699729,1.22854 -7.962385,2.15857 -8.102941,2.30976 -0.05865,0.0631 1.124766,0.07 2.629862,0.0152 4.468417,-0.16258 7.217155,-0.8051 12.514573,-2.92525 7.088876,-2.83713 7.438416,-2.89784 14.885923,-2.58573 3.741929,0.15683 3.935239,0.12744 6.928949,-1.05366 2.13218,-0.84118 4.69232,-1.55241 5.28418,-1.46798 0.20635,0.0294 -0.57819,0.35965 -1.74343,0.73379 -1.16524,0.37414 -2.87337,1.00015 -3.79584,1.39115 -0.92248,0.39098 -2.31282,0.83678 -3.08965,0.99062 l -1.412408,0.27973 4.060668,1.00734 4.06067,1.00733 0.31608,-0.38305 c 0.17383,-0.21068 0.64916,-0.77679 1.05628,-1.25802 0.40712,-0.48125 0.91629,-1.25505 1.13152,-1.71958 0.8767,-1.89227 3.43679,-4.57968 5.31775,-5.58222 2.16828,-1.15569 3.84552,-1.5313 4.54707,-1.01832 0.46236,0.3381 0.23429,0.51938 -0.32998,0.26229 -0.34757,-0.15836 -0.65245,-0.15749 -1.3028,0.004 -1.00746,0.24977 -3.30042,1.34685 -3.62011,1.73205 -0.14237,0.17154 0.0985,0.10821 0.65502,-0.17236 1.04799,-0.52824 1.88766,-0.73197 2.37689,-0.57669 0.55914,0.17746 0.41865,0.44264 -0.23452,0.44264 -0.32535,0 -0.86163,0.0903 -1.19171,0.20064 -0.84233,0.28163 -3.26704,1.91148 -4.24755,2.85516 -1.2986,1.24979 -1.41056,1.74769 -0.13305,0.59161 1.33981,-1.21246 3.24342,-2.20058 4.53081,-2.35184 1.16011,-0.13631 1.26934,0.19845 0.11628,0.35648 -1.80056,0.2468 -5.0306,2.5718 -7.13422,5.13527 -1.24588,1.51821 -1.27524,1.5776 -0.89699,1.81381 0.2704,0.16888 0.41046,0.0747 0.95915,-0.64476 0.92578,-1.21397 3.61557,-3.75987 4.55246,-4.30892 0.7824,-0.45852 2.44741,-0.90157 2.44741,-0.65124 0,0.0692 -0.33765,0.22471 -0.75034,0.34559 -1.2453,0.36476 -2.16643,1.00522 -3.77064,2.62172 -1.73946,1.7528 -2.89415,3.20125 -2.89415,3.63043 0,0.20286 0.14927,0.29164 0.48551,0.28874 0.36169,-0.004 0.62059,-0.18831 1.01518,-0.72624 1.45585,-1.98477 4.11453,-3.85276 5.96618,-4.19185 1.13953,-0.20868 1.01441,0.11759 -0.2039,0.53174 -2.01015,0.68327 -3.97564,2.15313 -5.471,4.0914 -0.74672,0.96788 -0.92856,1.64745 -0.48624,1.81719 0.13553,0.052 0.73813,-0.15366 1.33908,-0.45702 0.98456,-0.497 4.0326,-1.5907 4.43315,-1.5907 0.49083,0 0.0119,0.32073 -1.03109,0.6904 -0.65544,0.23233 -1.93736,0.78775 -2.84871,1.23425 -1.32374,0.64856 -1.71219,0.9276 -1.93146,1.38743 -0.41895,0.87854 -0.12574,1.02271 1.19696,0.58849 1.39631,-0.45839 3.89869,-0.79496 4.81775,-0.648 0.38948,0.0623 0.87465,0.22986 1.07814,0.3724 0.44671,0.31288 0.14783,0.33611 -0.77339,0.0602 -0.52711,-0.15791 -1.04035,-0.1362 -2.48323,0.10501 -3.09857,0.51811 -5.48833,1.64831 -5.17862,2.44912 0.0946,0.24457 0.23934,0.29832 0.58616,0.21765 2.75423,-0.64065 4.77284,-0.74641 6.69087,-0.35055 0.82365,0.16999 0.61767,0.53154 -0.24168,0.42421 -0.38065,-0.0475 -1.56603,-0.0783 -2.63416,-0.0685 -1.6575,0.0153 -2.12315,0.0876 -3.17793,0.49301 -1.66716,0.64086 -3.37941,1.67923 -4.5831,2.77932 -0.85997,0.78597 -1.70209,1.91795 -1.42681,1.91795 0.0496,0 0.49392,-0.24844 0.98738,-0.55207 2.27626,-1.40058 6.67288,-2.97894 8.29806,-2.97894 1.25782,0 1.22117,0.29967 -0.0537,0.43938 -2.96527,0.32497 -8.67047,2.86632 -9.7496,4.3429 -0.80702,1.10428 -1.62043,2.36418 -1.74374,2.70095 -0.10964,0.2995 -0.0882,0.30837 0.21431,0.0883 3.19894,-2.32768 7.20373,-4.63746 9.60601,-5.54031 1.66022,-0.62398 1.0067,-0.0893 -1.30931,1.07101 -4.08538,2.04694 -8.97873,5.23221 -8.97873,5.84462 0,0.14716 -0.14871,0.47847 -0.33046,0.73622 -1.02468,1.45311 -1.793754,3.69088 -1.778341,5.17439 l 0.0095,0.94387 0.335871,-0.44138 c 0.18473,-0.24275 0.95209,-1.27558 1.70524,-2.29516 1.87866,-2.54326 4.60925,-5.21888 7.61637,-7.46304 2.84442,-2.12273 4.57405,-3.05758 6.11842,-3.30697 1.40648,-0.22713 1.6961,0.0782 0.33364,0.35167 -3.45533,0.69369 -9.86424,5.66372 -13.32076,10.33006 -3.330303,4.49593 -3.940418,6.24641 -2.60936,7.48646 0.52879,0.49265 0.75991,0.46658 1.02333,-0.11545 z m 22.08534,-20.21192 c 0.51462,-1.10146 0.59691,-1.50992 1.41442,-7.02107 0.38964,-2.62678 1.48811,-7.37165 1.7759,-7.67114 0.10181,-0.10596 0.22109,-0.10596 0.3238,0 0.0997,0.10275 -0.008,0.80668 -0.27801,1.81706 -0.24235,0.90713 -0.40234,1.68763 -0.35553,1.73444 0.20478,0.2048 2.48244,-1.47383 3.60904,-2.65985 2.40155,-2.5282 3.7082,-5.53604 4.10337,-9.44572 0.10406,-1.0292 0.2707,-2.49546 0.37036,-3.25837 0.17626,-1.34918 0.17001,-1.39481 -0.22844,-1.6696 -0.54509,-0.3759 -1.27502,-1.10672 -1.48797,-1.48978 -0.16113,-0.2899 -0.25681,-0.28071 -1.52739,0.14648 -3.17154,1.06633 -5.09806,3.14879 -5.75747,6.22346 -0.10975,0.51175 -0.19955,1.31109 -0.19955,1.77628 0,1.03597 0.55379,3.26587 1.05512,4.24854 0.35533,0.69652 0.35217,1.06755 -0.009,1.06755 -0.0929,0 -0.3025,-0.28001 -0.46571,-0.62224 l -0.29672,-0.62223 -0.75526,1.17383 c -1.55318,2.414 -1.89736,3.88145 -1.85924,7.92717 0.0279,2.96263 -0.1918,7.91425 -0.42304,9.53375 -0.0983,0.68777 -0.0934,0.69591 0.18677,0.31213 0.15818,-0.21675 0.52026,-0.89206 0.80463,-1.50069 z m 6.35286,-26.20603 c 0,-1.06061 0.58698,-2.28668 1.3041,-2.72397 0.59325,-0.36175 1.43271,-0.44519 1.60899,-0.15995 0.06,0.0971 0.0249,0.17655 -0.0778,0.17655 -0.10287,0 -0.18697,0.32565 -0.18697,0.72366 0,1.36638 -0.81369,2.38213 -2.16275,2.69977 -0.47704,0.11237 -0.48552,0.0998 -0.48552,-0.71606 z m 1.30826,-0.0719 c 0.17919,-0.1669 -0.60613,-0.88829 -0.82185,-0.75496 -0.0733,0.0453 -0.1333,0.3214 -0.1333,0.61353 0,0.46865 0.0468,0.517 0.39724,0.4111 0.21848,-0.066 0.46953,-0.18736 0.55791,-0.26967 z m 0.81035,-1.68484 v -0.79404 l -0.52964,0.31288 c -0.65242,0.38538 -0.72196,1.05818 -0.13242,1.281 0.56523,0.21362 0.66206,0.0966 0.66206,-0.79984 z m -3.35447,1.25058 c 0,-0.45449 0.45957,-1.38771 0.85839,-1.74305 0.48774,-0.43459 0.47577,-0.31307 -0.0618,0.62726 -0.24159,0.42261 -0.44022,0.9074 -0.44139,1.07734 -0.001,0.16992 -0.0816,0.30896 -0.17867,0.30896 -0.0971,0 -0.17656,-0.12173 -0.17656,-0.27051 z m -44.564897,14.82179 c 1.351615,-0.44474 3.117596,-1.08188 3.924403,-1.41584 1.803945,-0.74671 4.624087,-2.15263 4.624087,-2.30524 0,-0.0618 -0.575996,-0.0626 -1.279988,-0.002 -2.537424,0.21927 -5.184095,1.21917 -7.730413,2.92049 -1.396102,0.93279 -2.267909,1.6006 -2.098079,1.6071 0.05638,0.002 1.208376,-0.35997 2.55999,-0.80472 z m 25.075727,-10.86709 c 1.3596,-0.61827 7.37508,-2.8204 10.01006,-3.66446 0.99436,-0.31853 2.0931,-0.54939 2.61463,-0.54939 0.70717,0 0.87882,-0.0539 0.80271,-0.25229 -0.0533,-0.13876 -0.15003,-0.53599 -0.21509,-0.88276 -0.07,-0.37349 -0.22106,-0.63046 -0.37048,-0.63046 -0.44067,0 -1.53355,-0.64465 -2.42463,-1.43019 -0.47428,-0.41811 -1.98035,-2.15425 -3.3468,-3.85809 -2.86708,-3.57501 -3.97382,-4.79265 -4.99753,-5.4983 -0.70125,-0.48338 -0.87765,-0.51566 -4.17103,-0.76346 -3.66834,-0.276 -6.0817,-0.72827 -9.662199,-1.81074 -2.349925,-0.71044 -3.306884,-1.19091 -4.566427,-2.29273 -0.498658,-0.43621 -0.904798,-0.72736 -0.902529,-0.64701 0.002,0.0803 0.220749,0.54335 0.485519,1.02885 0.386649,0.70903 0.689867,0.99385 1.540695,1.44724 2.531966,1.34922 5.753429,2.33174 8.959961,2.7327 1.86244,0.23289 2.28709,0.49908 0.79448,0.498 -2.24073,-10e-4 -5.765211,-0.83896 -8.34203,-1.98188 -0.87393,-0.38761 -2.105373,-0.88624 -2.736547,-1.10804 -1.603539,-0.56352 -2.470788,-0.97294 -4.689407,-2.21385 -1.062188,-0.5941 -2.194148,-1.19078 -2.515462,-1.32597 -0.568336,-0.23908 -0.581074,-0.2351 -0.468844,0.14681 0.251838,0.85699 1.267524,2.31038 1.939814,2.77578 1.823141,1.26208 8.985745,3.67337 13.678696,4.60494 1.408,0.2795 2.73875,0.50978 2.95723,0.51173 0.21848,0.002 0.39724,0.0923 0.39724,0.20068 0,0.22647 -1.43941,0.11545 -3.9724,-0.30632 -2.126798,-0.35416 -4.00461,-0.84056 -6.004366,-1.55531 -0.910609,-0.32546 -1.690299,-0.55711 -1.732645,-0.51476 -0.129745,0.12975 -3.717546,-0.28406 -4.728775,-0.54539 l -0.952088,-0.24605 0.529654,0.43028 c 0.291307,0.23666 1.498656,0.91496 2.682997,1.50734 2.129368,1.06508 2.192252,1.08361 5.649628,1.66513 1.922959,0.32344 4.429811,0.68231 5.570765,0.7975 2.84354,0.28706 2.73007,0.60139 -0.16129,0.4468 -2.409387,-0.12879 -5.026344,-0.45979 -7.088844,-0.89661 -0.710346,-0.15044 -1.803429,-0.27353 -2.429071,-0.27353 -1.085123,0 -1.127589,0.0159 -0.9217,0.34561 0.30849,0.49397 1.607056,1.15642 3.1422,1.60297 2.232503,0.6494 6.701238,0.67381 10.195245,0.0558 0.31559,-0.0559 0.57379,-0.0261 0.57379,0.066 0,0.26248 -3.24123,0.78419 -5.3848,0.86672 -1.861881,0.0717 -5.561065,0.72508 -5.561265,0.98228 -1.74e-4,0.24384 1.232352,1.05677 2.104952,1.38833 2.226212,0.84589 3.712984,0.61387 7.322873,-1.14285 2.53014,-1.23127 3.47043,-1.58159 3.94439,-1.46958 0.21014,0.0496 0.0253,0.19914 -0.57236,0.46283 -3.4448,1.51985 -3.53698,1.57946 -4.21508,2.72575 -0.35204,0.59508 -0.64008,1.17458 -0.64008,1.28779 0,0.4538 0.62214,0.4078 1.63852,-0.12117 0.63505,-0.33051 1.2227,-0.51846 1.47203,-0.47079 0.34855,0.0667 0.49852,-0.0687 0.9367,-0.84509 0.57261,-1.0146 2.13216,-2.77699 3.21929,-3.63802 1.22782,-0.97246 0.89834,-0.4354 -0.78063,1.27237 -1.75377,1.78386 -2.89432,3.57929 -2.68758,4.23067 0.0967,0.30474 0.21114,0.20707 0.77776,-0.66388 1.01673,-1.56283 2.20067,-2.7767 3.66057,-3.75313 0.72967,-0.48804 1.39948,-0.88735 1.48845,-0.88735 0.36526,0 0.11343,0.29489 -0.67718,0.79287 -1.8116,1.14111 -4.8107,4.43523 -4.8107,5.28392 0,0.42395 0.24414,0.33458 0.56398,-0.20647 0.52927,-0.8953 2.79221,-3.38286 3.5456,-3.89753 0.75041,-0.51264 2.02274,-1.01929 2.17566,-0.86638 0.0452,0.0452 -0.3729,0.30501 -0.92927,0.5772 -1.18119,0.57791 -2.86958,2.21956 -4.13302,4.01865 -1.00527,1.43143 -1.18317,2.18297 -0.2547,1.07595 1.1632,-1.38688 4.5731,-3.90121 5.06737,-3.73646 0.11568,0.0386 -0.2615,0.35725 -0.83817,0.7082 -1.88106,1.14476 -4.84434,3.99086 -4.84434,4.65276 0,0.14789 0.54966,-0.18425 1.32646,-0.80156 1.47827,-1.17472 3.0317,-2.09153 4.67575,-2.75957 1.80796,-0.73465 1.62792,-0.36985 -0.28618,0.57984 -2.06851,1.0263 -3.006,1.64446 -4.68326,3.08802 -1.33667,1.15045 -1.51247,1.64991 -0.83469,2.37138 l 0.37464,0.39878 0.74135,-1.00533 c 1.25227,-1.6982 3.10855,-3.2722 4.91819,-4.1703 1.72087,-0.85404 1.88908,-0.91045 1.88908,-0.63343 0,0.0958 -0.49655,0.42287 -1.10345,0.72703 -2.10111,1.05301 -4.65001,3.20461 -5.69027,4.80333 -0.28762,0.44203 -0.2938,0.5251 -0.0567,0.76219 0.23708,0.23708 0.41845,0.11557 1.66405,-1.11507 1.82458,-1.80263 3.94915,-2.9222 6.28982,-3.31447 1.13047,-0.18946 0.73431,0.20193 -0.61792,0.61047 -2.089,0.63116 -3.90431,1.67856 -5.36072,3.09304 -0.71725,0.69662 -1.30408,1.35838 -1.30408,1.47059 0,0.27091 -0.0452,0.28263 1.34384,-0.349 z m 25.82352,-6.3766 c 0.0805,-0.21848 0.2024,-0.63558 0.27091,-0.92688 l 0.12459,-0.52966 -0.65888,0.65136 c -0.56005,0.55367 -0.62458,0.6927 -0.43021,0.92689 0.31613,0.38093 0.52173,0.34485 0.69359,-0.12171 z m -13.04329,-0.39321 c 0,-0.24782 -0.92146,-2.47342 -1.50015,-3.62332 -1.25259,-2.48897 -2.70899,-4.25467 -4.32603,-5.24477 -0.57703,-0.3533 -2.65035,-1.1042 -3.7513,-1.3586 -0.44176,-0.10205 -0.41143,-0.0447 0.33944,0.64151 0.45349,0.41448 2.03258,2.26312 3.50904,4.10807 2.55846,3.19695 3.87082,4.62012 4.84625,5.25539 0.42828,0.27891 0.88275,0.39307 0.88275,0.22172 z m 12.87415,-1.17978 1.09826,-0.99919 -0.76278,0.16925 c -0.68851,0.15278 -2.08691,0.90852 -2.08691,1.12785 0,0.18303 0.44318,0.78859 0.54589,0.74589 0.059,-0.0246 0.6015,-0.49423 1.20554,-1.0438 z"
       id="path943" />
    <path
       style="fill:#ffffff;stroke-width:0.128223"
       d="m 136.89851,172.48245 c 0,-0.0752 0.13894,-0.32046 0.30877,-0.54495 0.16981,-0.2245 0.75177,-1.28141 1.29321,-2.3487 0.95883,-1.89001 0.97941,-1.9501 0.79101,-2.30802 -0.28517,-0.54174 -1.42942,-1.58954 -2.49575,-2.28537 -0.55777,-0.36399 -1.1371,-0.87729 -1.4332,-1.26988 -0.5756,-0.76316 -1.33883,-2.30772 -1.16847,-2.3646 0.0638,-0.0214 0.33053,0.0508 0.59262,0.16034 0.2621,0.10952 0.85099,0.25893 1.30863,0.33204 1.39687,0.22315 2.04353,0.68721 2.66345,1.91136 0.28991,0.57251 0.6496,1.83676 0.76849,2.70116 0.0618,0.44918 0.12926,0.61939 0.19734,0.49774 0.23851,-0.42618 0.89551,-2.89177 0.96296,-3.61372 0.0401,-0.42977 0.10228,-0.82874 0.13805,-0.88663 0.13633,-0.22059 -0.59023,-1.4907 -1.43968,-2.51675 -1.59163,-1.92249 -2.49542,-3.62941 -2.58506,-4.88214 -0.059,-0.82445 0.18452,-1.81359 0.4437,-1.80236 0.0565,0.002 0.49238,0.29211 0.96864,0.64371 1.02449,0.75633 1.63046,1.61056 2.07973,2.93169 0.17792,0.5232 0.40329,1.04251 0.50083,1.15401 0.0975,0.11153 0.29708,0.43353 0.44339,0.71562 0.14632,0.2821 0.26812,0.45519 0.27066,0.38467 0.0246,-0.68198 -0.35245,-2.76489 -0.75423,-4.16725 -0.27278,-0.95207 -0.53672,-1.92595 -0.58653,-2.16418 l -0.0905,-0.43315 -0.97994,0.1126 c -2.27928,0.26191 -3.32359,0.0598 -4.46486,-0.86409 -0.45877,-0.3714 -1.57988,-1.65103 -1.57988,-1.80328 0,-0.0278 0.90878,-0.0484 2.01951,-0.0458 1.94535,0.005 2.04625,0.0179 2.74734,0.36224 0.40031,0.19658 1.02058,0.63227 1.37841,0.96821 0.35781,0.33594 0.65057,0.56228 0.65057,0.50299 0,-0.21881 -0.56807,-1.21825 -1.30954,-2.30389 -1.06677,-1.56201 -1.28129,-2.17884 -1.32848,-3.8202 -0.0396,-1.3768 -0.0227,-1.35491 0.29719,0.38466 l 0.10608,0.577 0.0873,-0.41132 c 0.0555,-0.26174 0.0165,-0.58082 -0.1075,-0.87744 -0.10714,-0.25636 -0.16999,-0.53286 -0.13974,-0.61446 0.0303,-0.0816 0.0972,0.0107 0.14883,0.20426 0.0516,0.19395 0.17285,0.35263 0.26944,0.35263 0.0966,0 0.69618,0.50881 1.33244,1.13069 0.63626,0.62189 1.15713,1.06906 1.15748,0.99372 3.8e-4,-0.0753 -0.61991,-0.7491 -1.37839,-1.49728 -1.65123,-1.62879 -1.7011,-1.68955 -1.69424,-2.06424 0.005,-0.25521 0.0377,-0.23482 0.25107,0.15487 l 0.2457,0.4488 0.006,-0.72379 c 0.006,-0.80924 0.36896,-2.09495 0.80639,-2.8565 0.38601,-0.67206 0.60944,-0.73255 0.60944,-0.165 0,0.4948 0.18717,1.08089 0.82757,2.59126 0.48476,1.1433 0.64636,2.14756 0.48489,3.01325 -0.0909,0.4873 -0.10762,0.3876 -0.10727,-0.64111 3.8e-4,-1.15217 -0.028,-1.28062 -0.52367,-2.37214 -0.52524,-1.15659 -0.77598,-1.90138 -0.84175,-2.50035 l -0.0352,-0.32056 -0.24741,0.36754 c -0.25415,0.37758 -0.35295,0.88441 -0.36107,1.85228 -0.002,0.34498 -0.0447,0.48963 -0.1113,0.38466 -0.13712,-0.21624 -0.12105,1.38695 0.0183,1.81923 0.0671,0.20823 0.0871,0.0285 0.057,-0.5129 l -0.0463,-0.83345 0.13258,0.89758 c 0.073,0.49364 0.19427,0.95525 0.26966,1.02578 0.096,0.0897 0.1081,0.0513 0.0405,-0.12823 -0.0532,-0.14105 -0.11462,-0.92 -0.13661,-1.73102 l -0.04,-1.47455 0.0988,1.28222 c 0.1288,1.67126 0.25928,2.3254 0.41819,2.09631 0.0831,-0.1197 0.0949,-0.0841 0.0388,0.11557 -0.045,0.16012 -0.0244,0.28849 0.0464,0.28849 0.0701,0 0.15385,-0.10097 0.1861,-0.22439 0.0369,-0.14117 0.0642,-0.0965 0.0736,0.12066 0.008,0.18978 0.0726,0.38071 0.1431,0.4243 0.18178,0.11236 0.15717,-0.61312 -0.0543,-1.6028 -0.32053,-1.49958 -0.32949,-1.61277 -0.066,-0.83345 0.14308,0.42314 0.284,1.19682 0.31315,1.7193 0.0724,1.29699 0.32006,1.5205 0.32006,0.28879 0,-0.78694 -0.0884,-1.16442 -0.58041,-2.47985 -0.31924,-0.85338 -0.55866,-1.57336 -0.53208,-1.59995 0.0266,-0.0266 0.31663,0.67295 0.64454,1.55455 0.52158,1.40235 0.59618,1.72811 0.59618,2.60366 0,0.73432 0.0656,1.12953 0.24662,1.48449 0.22604,0.44335 0.23076,0.5217 0.0566,0.93853 -0.29602,0.70844 -0.14391,0.61491 0.26258,-0.16147 0.35189,-0.6721 2.20537,-2.58127 2.3579,-2.42874 0.0375,0.0374 0.0441,0.0844 0.0147,0.10429 -1.13699,0.76869 -2.43856,2.35296 -2.623,3.19277 -0.0637,0.28984 -0.1164,0.34812 -0.19753,0.21816 -0.0662,-0.1062 -0.0783,0.0236 -0.0301,0.32342 0.0463,0.28792 0.0311,0.47061 -0.0357,0.4298 -0.0639,-0.039 -0.1264,0.16837 -0.13888,0.4609 l -0.0227,0.53188 0.1917,-0.5129 c 0.10548,-0.28208 0.21091,-0.70066 0.23438,-0.93013 0.0235,-0.22949 0.17823,-0.64207 0.3439,-0.91686 0.29318,-0.4863 1.90401,-2.28113 1.90401,-2.12152 0,0.044 -0.34142,0.43554 -0.75867,0.8702 -0.68925,0.71797 -1.53247,2.06805 -1.38424,2.21628 0.0331,0.0331 0.20715,-0.18766 0.38678,-0.49057 0.17964,-0.30291 0.68533,-0.95224 1.12375,-1.44297 0.43844,-0.49072 0.93786,-1.18314 1.10984,-1.53868 0.20426,-0.42229 0.28429,-0.51735 0.23079,-0.27415 -0.099,0.44986 -0.58264,1.16468 -1.47525,2.18029 -0.64294,0.73153 -1.28458,1.64376 -1.28458,1.8263 0,0.14824 1.455,-1.49589 1.76241,-1.99149 0.15831,-0.25522 0.28814,-0.3864 0.2885,-0.29152 10e-4,0.3724 -1.84809,2.51728 -2.0585,2.38725 -0.1412,-0.0872 -0.28663,0.41682 -0.17321,0.60035 0.0612,0.0992 0.0358,0.11438 -0.0757,0.0454 -0.10869,-0.0672 -0.13683,-0.0536 -0.0799,0.0387 0.0484,0.0783 0.18716,0.10631 0.30831,0.0622 0.1904,-0.0694 0.18641,-0.0416 -0.0295,0.2041 -0.56574,0.64387 -0.54676,1.28899 0.10892,3.70096 0.32434,1.19316 0.58971,2.26572 0.58971,2.38347 0,0.1177 0.0433,0.21387 0.0961,0.21361 0.18843,-6.6e-4 0.52606,-1.10384 0.60828,-1.98697 0.0975,-1.04826 0.35469,-2.12957 0.69528,-2.92411 0.4074,-0.95045 0.95457,-1.44705 2.29928,-2.08682 0.68067,-0.32384 1.3472,-0.68483 1.48117,-0.80218 0.23408,-0.20505 0.2399,-0.19836 0.14895,0.17128 -0.0521,0.21156 -0.20355,0.95423 -0.33666,1.65034 -0.35317,1.84713 -1.03555,2.85502 -2.6186,3.86768 -0.79828,0.51065 -0.79245,0.50883 -0.79245,0.24803 0,-0.10797 0.35874,-0.45231 0.7972,-0.76519 1.24677,-0.88968 1.7134,-1.5377 2.12373,-2.94929 0.12301,-0.42313 0.22776,-0.67883 0.23278,-0.56822 0.014,0.30942 -0.37432,1.55793 -0.58904,1.89364 -0.10537,0.1648 -0.16207,0.32921 -0.12592,0.36536 0.15894,0.15894 0.70574,-1.28167 0.90333,-2.3799 0.11895,-0.66111 0.19217,-1.22611 0.16271,-1.25557 -0.0294,-0.0296 -0.21942,0.13501 -0.42214,0.3655 -0.20273,0.23048 -0.65451,0.69451 -1.00395,1.03119 -0.34945,0.33666 -0.58388,0.61212 -0.52096,0.61212 0.0629,0 -0.0509,0.17249 -0.25285,0.38333 -0.202,0.21083 -0.34076,0.40982 -0.30839,0.4422 0.0324,0.0324 0.56189,-0.4876 1.17672,-1.1555 1.16805,-1.26889 1.57591,-1.51896 0.49693,-0.30469 -0.3415,0.38432 -0.60037,0.75882 -0.57527,0.83221 0.0252,0.0735 -0.16859,0.33304 -0.43045,0.577 l -0.47611,0.44356 0.41026,-0.4853 c 0.61038,-0.72202 0.48648,-0.76257 -0.16556,-0.0542 -0.52907,0.5748 -1.34753,1.84479 -1.34753,2.09093 0,0.0604 0.18618,-0.11975 0.41374,-0.40028 0.22757,-0.28053 0.71133,-0.8274 1.07504,-1.21528 0.36369,-0.38788 0.78314,-0.90718 0.9321,-1.15401 0.14897,-0.24684 0.27106,-0.40171 0.27133,-0.34419 9.9e-4,0.18619 -0.27986,0.65236 -0.72329,1.20115 -0.24599,0.30444 -0.37814,0.57057 -0.30558,0.61541 0.0704,0.0435 0.2439,-0.11142 0.38578,-0.34407 0.14186,-0.23269 0.25815,-0.36378 0.25841,-0.29133 0.001,0.30091 -0.9018,1.39373 -1.34586,1.62896 -0.2496,0.13222 -0.25023,0.12885 -0.0237,-0.12653 0.14055,-0.15845 0.18178,-0.29387 0.10406,-0.34189 -0.0707,-0.0437 -0.34019,0.19577 -0.59871,0.53222 -0.25854,0.33646 -0.51512,0.59952 -0.57021,0.58458 -0.0551,-0.0149 -0.0866,0.17522 -0.07,0.42253 0.022,0.32701 -0.0346,0.48433 -0.20723,0.5767 -0.13054,0.0699 -0.39376,0.42789 -0.58493,0.79561 -0.32161,0.61859 -0.34876,0.79125 -0.36336,2.3102 l -0.0158,1.64165 0.65204,-0.62829 c 0.84761,-0.81677 1.20866,-1.0459 2.44715,-1.55304 0.56418,-0.23102 1.19127,-0.57348 1.39351,-0.761 l 0.36773,-0.34096 -0.0584,1.02578 c -0.0642,1.12678 -0.50533,2.20503 -1.24858,3.05154 -0.43187,0.49186 -1.52639,1.10438 -2.56994,1.43819 -1.51939,0.486 -1.58939,0.55291 -1.90081,1.81645 -0.38362,1.55648 -0.99624,3.14839 -1.94015,5.04158 -1.29444,2.59622 -1.92908,3.60583 -1.92908,3.06881 z m 2.55545,-5.86523 c -0.007,-0.17676 -0.0293,-0.16944 -0.11921,0.0396 -0.0942,0.21929 -0.11153,0.22392 -0.11922,0.032 -0.005,-0.12342 -0.0545,-0.22439 -0.10999,-0.22439 -0.14967,0 -0.16137,-0.51881 -0.0177,-0.78716 0.0687,-0.12835 0.0857,-0.38991 0.0376,-0.58124 l -0.0873,-0.34786 -0.11082,0.2997 c -0.061,0.16485 -0.0784,0.42117 -0.0387,0.56963 0.0597,0.22332 0.0389,0.21458 -0.12093,-0.0507 -0.10619,-0.17631 -0.19647,-0.26285 -0.20054,-0.19234 -0.004,0.0705 -0.11473,-0.0119 -0.24599,-0.18215 -0.13123,-0.17071 -0.37517,-0.33088 -0.5421,-0.35592 -0.24491,-0.0368 -0.17355,0.0685 0.36968,0.54473 0.37024,0.32463 0.67316,0.64347 0.67316,0.70851 0,0.065 -0.22693,-0.10868 -0.50432,-0.38602 -0.27738,-0.27739 -0.66684,-0.60746 -0.86551,-0.73351 -0.92827,-0.589 -1.69598,-1.24288 -2.06888,-1.76214 -0.57718,-0.8037 -0.50699,-0.8668 0.10418,-0.0936 0.52869,0.66888 1.87499,1.77498 2.00371,1.64627 0.04,-0.04 -0.2801,-0.34687 -0.71144,-0.68184 -0.4986,-0.3872 -0.72973,-0.64272 -0.63454,-0.70155 0.0958,-0.0592 -3e-5,-0.16994 -0.26556,-0.30725 -0.2284,-0.11806 -0.38804,-0.24196 -0.35477,-0.27523 0.0333,-0.0332 0.35852,0.11521 0.72278,0.33001 0.70953,0.41835 0.84114,0.46616 0.71316,0.25909 -0.0447,-0.0723 -0.48675,-0.33563 -0.98239,-0.58523 -0.49564,-0.24961 -0.87198,-0.48299 -0.83633,-0.51865 0.0999,-0.0999 1.09066,0.43418 1.99781,1.07709 0.45005,0.31893 0.79324,0.49942 0.76265,0.40109 -0.0306,-0.0984 -0.35428,-0.37717 -0.71929,-0.61967 -0.36501,-0.2425 -0.64152,-0.46304 -0.61447,-0.49009 0.10489,-0.10489 1.08578,0.61678 1.46718,1.0795 0.50509,0.61274 0.52753,0.38467 0.0298,-0.30246 -0.36268,-0.50067 -1.30302,-1.02556 -1.55657,-0.86885 -0.0638,0.0395 -0.25635,-0.0201 -0.4277,-0.13236 -0.17136,-0.11225 -0.518,-0.21734 -0.77032,-0.23349 -0.25232,-0.0161 -0.52708,-0.0977 -0.61059,-0.18117 -0.19454,-0.19455 0.21136,-0.12561 1.66536,0.28291 1.1648,0.32724 1.66146,0.68635 2.08317,1.50619 0.24456,0.47545 0.33716,0.83033 0.13236,0.50724 -0.0867,-0.13687 -0.12448,-0.12915 -0.1889,0.0387 -0.0535,0.13934 -0.0306,0.17892 0.0681,0.11794 0.0974,-0.0602 0.12197,-0.0227 0.0714,0.10916 -0.0424,0.11046 0.008,0.30749 0.11248,0.43776 0.17405,0.21745 0.18319,0.20012 0.11165,-0.21193 -0.0607,-0.34971 -0.046,-0.40633 0.0665,-0.25646 0.31164,0.41509 -0.0273,-0.45697 -0.44844,-1.15399 -0.51217,-0.8476 -1.13725,-1.21205 -2.42124,-1.41168 -0.48489,-0.0754 -1.05268,-0.22554 -1.26177,-0.33365 -0.37373,-0.19328 -0.37863,-0.19157 -0.28995,0.10121 0.37197,1.22783 1.3814,2.43018 2.89431,3.44747 0.61989,0.41681 1.31177,0.98767 1.53752,1.26858 0.40973,0.50985 0.63809,0.56801 0.62106,0.15815 z m -0.49376,-1.25329 c 0.006,-0.14938 0.0366,-0.17976 0.0775,-0.0775 0.037,0.0925 0.0325,0.20315 -0.0107,0.24575 -0.0426,0.0426 -0.073,-0.0332 -0.0673,-0.16828 z m 0.33124,0.4274 c -0.0356,-0.0882 -0.0647,-0.016 -0.0647,0.16028 0,0.17632 0.0292,0.24843 0.0647,0.16029 0.0356,-0.0882 0.0356,-0.23241 0,-0.32057 z m -0.89955,-0.9189 c -0.1145,-0.1748 -0.17744,-0.39816 -0.13975,-0.49635 0.0376,-0.0982 -0.0206,-0.25251 -0.12968,-0.34296 -0.16158,-0.13411 -0.19817,-0.13348 -0.19817,0.004 0,0.0965 -0.15313,0.0212 -0.35963,-0.17664 -0.6739,-0.64564 -0.56783,-0.34701 0.15349,0.4321 0.39547,0.42716 0.71904,0.84068 0.71904,0.91894 0,0.0782 0.0367,0.1056 0.0815,0.0607 0.0448,-0.0448 -0.0122,-0.22451 -0.12678,-0.39931 z m -0.59362,-0.32717 c -0.15366,-0.28712 -1.25062,-1.1581 -1.45857,-1.1581 -0.16582,0 0.0336,0.20025 0.87937,0.88345 0.74513,0.60186 0.75744,0.6077 0.5792,0.27465 z m 3.93151,-1.97617 c -0.0126,-0.067 0.47321,-0.30775 1.07957,-0.53481 1.13024,-0.42323 2.16722,-1.01859 2.16722,-1.24428 0,-0.0698 -0.12983,-0.0312 -0.2885,0.0856 -0.34181,0.25153 -1.34076,0.72551 -2.14775,1.01901 -0.31735,0.11545 -0.74145,0.34187 -0.94245,0.50321 -0.32406,0.26013 -0.33599,0.29335 -0.10536,0.29335 0.14307,0 0.24982,-0.0549 0.23723,-0.12198 z m 0.94755,-0.15792 c 1.00265,-0.29748 1.83692,-0.75004 2.37549,-1.28861 0.66962,-0.66962 1.22154,-1.92102 1.30482,-2.95844 l 0.0682,-0.84961 -0.29037,0.27052 c -0.1597,0.14879 -0.61562,0.39954 -1.01313,0.55723 -1.92657,0.76421 -2.92772,1.53516 -3.55878,2.74043 -0.19868,0.37949 -0.40573,0.66249 -0.46011,0.62889 -0.0543,-0.0336 -0.0626,0.0333 -0.0184,0.14865 0.0575,0.15002 0.10738,0.16628 0.17483,0.0571 0.0592,-0.0959 0.12364,-0.10524 0.17308,-0.0253 0.0433,0.07 -0.007,0.1987 -0.11224,0.28583 -0.10501,0.0871 -0.1891,0.22352 -0.18685,0.30304 0.002,0.0795 0.0888,0.0325 0.19234,-0.10429 0.10359,-0.13689 0.18826,-0.20562 0.18826,-0.15271 0,0.0529 0.0721,0.051 0.16027,-0.005 0.0882,-0.0552 0.21798,-0.10252 0.28851,-0.10525 0.1971,-0.007 1.49183,-0.4622 1.92334,-0.6753 0.21157,-0.10454 0.51427,-0.30845 0.67267,-0.45329 0.1584,-0.14483 0.32619,-0.22514 0.37287,-0.17846 0.0466,0.0466 0.16231,0.0206 0.25696,-0.0579 0.10892,-0.0903 0.17207,-0.0948 0.17207,-0.0121 0,0.3747 -1.3145,1.22433 -2.50036,1.61609 -0.58591,0.19357 -1.13016,0.45773 -0.95289,0.46251 0.0401,6.6e-4 0.3863,-0.091 0.76935,-0.20468 z m -1.13184,-0.49102 c 0.0523,-0.0617 0.0317,-0.18852 -0.0457,-0.28179 -0.1056,-0.12725 -0.0598,-0.30628 0.18321,-0.71703 0.55794,-0.94281 1.34032,-1.58109 2.71656,-2.21629 0.70523,-0.32548 1.19569,-0.50706 1.08991,-0.40353 -0.10584,0.10359 -0.65395,0.37734 -1.21813,0.60843 -0.80756,0.3308 -1.18263,0.57964 -1.76307,1.16973 -0.40551,0.41225 -0.73729,0.81824 -0.73729,0.90218 0,0.0839 0.30293,-0.14548 0.67318,-0.50984 0.58927,-0.5799 2.4921,-1.78395 2.61889,-1.65716 0.0255,0.0255 -0.31534,0.23771 -0.75738,0.47164 -0.85562,0.4528 -2.15002,1.47768 -2.15002,1.70234 0,0.0743 0.12983,0.0154 0.28851,-0.13076 0.15867,-0.14618 0.87065,-0.64176 1.58217,-1.1013 1.17878,-0.76131 1.61022,-1.14282 2.07401,-1.83399 0.0904,-0.13469 0.081,-0.0714 -0.0211,0.14311 -0.25214,0.52938 -0.86537,1.08079 -2.00022,1.79857 -0.52892,0.33453 -1.18765,0.78598 -1.46384,1.00324 -0.54306,0.42716 -0.84303,0.53219 -0.84615,0.29625 -10e-4,-0.087 -0.051,-0.0714 -0.11976,0.0373 -0.1628,0.25734 -0.0234,0.43623 0.19725,0.2531 0.13208,-0.10964 0.18093,-0.11094 0.18093,-0.005 0,0.08 0.32057,-0.11569 0.71239,-0.43485 0.39182,-0.31914 1.06979,-0.76034 1.50662,-0.98045 0.43682,-0.2201 0.98176,-0.59847 1.21095,-0.84081 0.22921,-0.24233 0.41674,-0.38553 0.41674,-0.31818 0,0.22593 -1.01103,1.03869 -1.76639,1.42 -0.41149,0.20772 -1.07676,0.64534 -1.47836,0.97248 -0.4016,0.32714 -0.73017,0.55571 -0.73017,0.50794 0,-0.0478 -0.10097,-0.009 -0.2244,0.085 -0.12341,0.0944 -0.18161,0.12125 -0.12933,0.0596 z m 1.32241,-0.59592 c 0.0417,-0.0674 0.40335,-0.29442 0.80372,-0.5044 0.40038,-0.20998 0.8722,-0.47886 1.04851,-0.59751 0.28283,-0.19035 0.29791,-0.19113 0.12821,-0.007 -0.22481,0.24446 -2.09253,1.28987 -1.98044,1.10849 z m 2.10867,-0.87051 c 0,-0.0618 0.096,-0.19172 0.21333,-0.28851 0.19344,-0.15958 0.19899,-0.14908 0.0596,0.11248 -0.15898,0.29837 -0.27292,0.37184 -0.27292,0.17598 z m 0.58735,-0.42038 c 0.11509,-0.22257 0.28562,-0.61206 0.37893,-0.8655 0.0933,-0.25347 0.17316,-0.37428 0.17744,-0.2685 0.01,0.22268 -0.58313,1.53868 -0.69233,1.53868 -0.0403,0 0.0209,-0.18211 0.13596,-0.40468 z m 0.57678,-1.59347 c 0.006,-0.14938 0.0365,-0.17976 0.0775,-0.0775 0.037,0.0925 0.0325,0.20315 -0.0107,0.24576 -0.0426,0.0426 -0.073,-0.0331 -0.0673,-0.16829 z m -5.23558,3.21786 c -0.0412,-0.21545 0.006,-0.34464 0.14526,-0.39811 0.11344,-0.0436 0.17865,-0.12379 0.14493,-0.17835 -0.0337,-0.0546 0.0288,-0.27982 0.1389,-0.50057 0.32605,-0.65359 -0.0579,-1.8055 -0.94888,-2.84672 -0.26164,-0.30576 -0.37743,-0.51657 -0.25873,-0.47106 0.19719,0.0756 0.19564,0.0266 -0.0189,-0.59675 -0.40812,-1.18621 -0.93608,-1.85401 -2.2812,-2.88539 l -0.54648,-0.41903 -0.20581,0.49257 c -0.27009,0.64642 -0.17688,1.82795 0.2087,2.64576 0.32636,0.69214 0.48703,0.75179 0.20464,0.0759 -0.13417,-0.32114 -0.15618,-0.62824 -0.0817,-1.14163 0.056,-0.38628 0.10893,-0.57572 0.11771,-0.42097 0.008,0.15475 0.15772,0.44325 0.33093,0.64112 l 0.31494,0.35975 -0.30571,-0.76933 c -0.16813,-0.42313 -0.33761,-0.94244 -0.3766,-1.15401 -0.0699,-0.37935 -0.0689,-0.3789 0.0734,0.032 0.0794,0.2292 0.21328,0.41673 0.29755,0.41673 0.0842,0 0.22041,0.1475 0.30255,0.32778 0.0821,0.18029 0.20322,0.2945 0.26906,0.25381 0.12322,-0.0762 0.70016,0.69212 1.08875,1.44984 0.1209,0.23575 0.24996,0.39849 0.28681,0.36165 0.14809,-0.1481 -0.80009,-1.657 -1.38511,-2.20422 -0.34327,-0.3211 -0.62414,-0.61707 -0.62414,-0.65771 0,-0.15975 1.11359,0.93205 1.50941,1.47988 0.42006,0.58138 0.77614,1.49042 0.63794,1.62861 -0.12781,0.12781 -0.72441,-0.34319 -0.65705,-0.51873 0.068,-0.1773 -0.7061,-1.5374 -0.81377,-1.42972 -0.0346,0.0346 0.11082,0.38369 0.32316,0.77575 0.21235,0.39207 0.35993,0.71285 0.32796,0.71285 -0.16864,0 -0.92428,-0.45642 -1.23148,-0.74385 -0.19394,-0.18146 -0.35261,-0.27104 -0.35261,-0.19908 0,0.072 0.0355,0.16638 0.0789,0.20979 0.0434,0.0434 0.0959,0.29826 0.11652,0.56632 0.0712,0.92236 0.54812,1.86178 1.54926,3.05184 0.53396,0.63471 1.11088,1.42808 1.28208,1.76308 0.35101,0.68682 0.4269,0.75183 0.33863,0.29009 z m -0.36484,-0.86366 c -0.13411,-0.29782 -0.65022,-0.97613 -1.14688,-1.50736 -0.95384,-1.02021 -1.39478,-1.78679 -1.51351,-2.63129 -0.0675,-0.48023 -0.0597,-0.49655 0.12342,-0.25644 0.1075,0.14104 0.24788,0.24246 0.31186,0.22535 0.18867,-0.0504 1.30506,0.60629 1.76848,1.04036 0.59789,0.56002 1.20046,1.77867 1.10221,2.22917 -0.0591,0.27103 -0.0453,0.30765 0.0599,0.15948 0.2349,-0.33066 0.16467,0.0893 -0.11909,0.71227 -0.14281,0.31348 -0.2783,0.56996 -0.30108,0.56996 -0.0228,0 -0.15118,-0.24367 -0.2853,-0.5415 z m 0.53622,-0.74073 c 0.0306,-0.73104 -0.56027,-1.90776 -1.21779,-2.42502 -0.60997,-0.47986 -1.54975,-0.95019 -1.54975,-0.7756 0,0.0762 -0.0577,0.10275 -0.12822,0.0592 -0.0705,-0.0436 -0.12822,-0.012 -0.12822,0.0702 0,0.0822 0.0809,0.11842 0.17979,0.0805 0.0988,-0.038 0.21911,-0.0297 0.26714,0.0184 0.0481,0.0481 0.12948,0.0873 0.18099,0.0873 0.0515,0 0.42389,0.22743 0.8275,0.5054 0.89059,0.61337 1.31595,1.22368 1.11479,1.59954 -0.10714,0.20011 -0.0808,0.3482 0.12047,0.67832 0.14163,0.23227 0.25716,0.48002 0.25676,0.55055 -3.8e-4,0.0705 -0.15317,-0.13144 -0.33949,-0.44879 -0.51009,-0.86882 -2.30107,-2.97239 -2.13818,-2.51137 0.0626,0.17739 0.0421,0.21791 -0.0739,0.14617 -0.10003,-0.0618 -0.0773,0.0619 0.0603,0.32785 0.27706,0.53577 1.57531,1.90854 1.77052,1.87213 0.08,-0.0149 0.13784,0.0716 0.1285,0.19226 -0.009,0.12063 0.0412,0.20719 0.11225,0.19232 0.0711,-0.0148 0.15828,0.0532 0.19388,0.1511 0.0399,0.10963 0.008,0.14349 -0.0812,0.088 -0.10501,-0.0649 -0.10311,0.004 0.007,0.24487 0.13942,0.30601 0.16391,0.31504 0.28275,0.1043 0.0715,-0.12688 0.141,-0.49034 0.1543,-0.80769 z m -1.7097,-1.17685 c -0.44076,-0.50548 -0.80139,-0.97196 -0.80139,-1.03662 0,-0.0647 0.22121,0.16169 0.49159,0.50301 0.27037,0.3413 0.59088,0.70237 0.71223,0.80235 0.19869,0.16372 0.52582,0.65267 0.43554,0.65099 -0.0202,-3.9e-4 -0.3972,-0.41425 -0.83797,-0.91973 z m 1.44252,0.66396 c -0.0482,-0.15167 -0.0587,-0.30461 -0.0234,-0.33988 0.0352,-0.0352 0.10347,0.06 0.15164,0.21166 0.0482,0.15168 0.0587,0.30463 0.0234,0.33989 -0.0352,0.0352 -0.10347,-0.06 -0.15164,-0.21167 z m -0.1943,-0.53511 c 0.005,-0.18228 -0.67293,-0.87555 -1.28349,-1.3142 -0.35085,-0.25206 -0.6379,-0.43013 -0.6379,-0.39574 0,0.0344 0.28514,0.3774 0.63365,0.76223 0.34849,0.38483 0.73244,0.85049 0.8532,1.0348 0.16518,0.25208 0.24595,0.29349 0.32607,0.16717 0.0586,-0.0923 0.10738,-0.20679 0.10845,-0.25426 z m -0.82407,-0.59393 c -0.62554,-0.7208 -0.62664,-0.7236 -0.086,-0.2173 0.45557,0.42664 0.89517,0.98151 0.75627,0.95459 -0.0202,-0.004 -0.32173,-0.33569 -0.67026,-0.73729 z m -2.6773,-3.14509 c -0.0419,-0.30561 -0.0259,-0.72393 0.0357,-0.92962 0.0891,-0.29792 0.11403,-0.18494 0.12286,0.55566 0.006,0.51129 -0.01,0.92962 -0.0357,0.92962 -0.0256,0 -0.0809,-0.25005 -0.12284,-0.55566 z m 1.19612,0.10833 c -0.43095,-0.75321 -0.5836,-0.90717 -0.38713,-0.39044 0.25751,0.67732 0.68591,1.40702 0.73733,1.25594 0.0298,-0.0873 -0.12785,-0.47686 -0.3502,-0.8655 z m 4.07901,-0.40193 c 0.0481,0.0289 0.0999,-0.25274 0.11509,-0.62597 0.0327,-0.80304 0.37004,-1.74898 0.94094,-2.63864 0.32226,-0.50221 0.63498,-0.77183 1.42125,-1.22535 0.55444,-0.31979 1.00808,-0.6023 1.00808,-0.62779 0,-0.0579 -0.81073,0.27736 -1.4192,0.58685 -0.66947,0.3405 -1.33098,1.13844 -1.65605,1.99757 -0.28796,0.76102 -0.64676,2.4602 -0.61954,2.93386 0.008,0.14939 0.0371,0.10833 0.0683,-0.0984 0.0295,-0.19513 0.093,-0.33111 0.14107,-0.30218 z m 1.37196,-0.25776 c 0.62107,-0.41079 1.60051,-1.33479 1.60051,-1.50994 0,-0.07 -0.22133,0.103 -0.49182,0.38448 -0.2705,0.28151 -0.78979,0.70305 -1.15401,0.93676 -0.36421,0.23372 -0.66219,0.44778 -0.66219,0.47568 0,0.12166 0.23194,0.0275 0.70751,-0.28698 z m -0.77646,-0.33947 c 0.0605,0.0551 0.0681,0.0274 0.0168,-0.0617 -0.0915,-0.15878 0.58345,-1.48623 0.8345,-1.64139 0.0691,-0.0427 0.093,-0.17999 0.0534,-0.30515 -0.04,-0.12577 0.0151,-0.30004 0.123,-0.38959 0.10738,-0.0891 0.19494,-0.22709 0.19459,-0.3066 -3.8e-4,-0.0795 -0.14253,0.0286 -0.31594,0.2401 -0.32363,0.39481 -0.42301,0.65299 -0.19778,0.51379 0.074,-0.0458 0.0933,0.008 0.0463,0.13141 -0.0577,0.15023 -0.10726,0.16637 -0.17495,0.057 -0.0581,-0.0941 -0.18167,0.0755 -0.32123,0.44088 -0.12472,0.32657 -0.25576,0.56476 -0.2912,0.52931 -0.0355,-0.0355 0.12151,-0.44217 0.34878,-0.90382 0.30987,-0.62946 0.61123,-1.00248 1.20491,-1.49149 1.08397,-0.89285 1.1278,-0.94792 0.50675,-0.63663 -0.85311,0.42757 -1.41513,1.00091 -1.81692,1.85346 -0.47567,1.00937 -0.90206,2.9168 -0.48346,2.16281 0.0893,-0.16088 0.21192,-0.24744 0.27246,-0.19234 z m 1.60295,-1.04821 c 0.24571,-0.29605 0.0236,-0.51122 -0.26148,-0.25327 -0.13238,0.1198 -0.20981,0.26781 -0.17204,0.32892 0.10086,0.16323 0.25805,0.13581 0.43352,-0.0756 z m -0.37999,0.01 c 0,-0.0266 0.10097,-0.1276 0.22438,-0.22439 0.20337,-0.15949 0.20791,-0.15496 0.0484,0.0484 -0.1675,0.21359 -0.27279,0.28152 -0.27279,0.17598 z m -5.83416,-0.97934 c 0.46564,-0.10477 0.44793,-0.10964 -0.19234,-0.0527 -0.86011,0.0764 -1.93796,-0.11664 -2.612,-0.46798 -0.64472,-0.33604 -1.38981,-0.90363 -1.3018,-0.99166 0.0375,-0.0375 0.20786,0.0632 0.37867,0.22365 0.17082,0.16046 0.36179,0.2601 0.42439,0.22141 0.0627,-0.0387 0.39866,0.008 0.74678,0.10334 0.34812,0.0955 0.54602,0.17884 0.43976,0.18515 -0.10631,0.006 -0.39093,-0.0452 -0.63262,-0.11462 -0.71554,-0.20521 -0.61542,-0.0316 0.19721,0.34209 0.69388,0.31901 0.87837,0.34638 2.21829,0.3291 0.8038,-0.0107 1.50871,-0.0661 1.56647,-0.12389 0.0578,-0.0577 -0.28847,-0.10026 -0.7694,-0.0946 -0.89919,0.0107 -1.75007,-0.16224 -0.97631,-0.19849 0.21157,-0.009 0.50007,-0.0726 0.64112,-0.13921 0.22544,-0.10655 0.21769,-0.11414 -0.0641,-0.0629 -0.17631,0.032 -0.69561,0.0884 -1.154,0.12524 l -0.83346,0.067 0.70523,-0.12512 c 0.9113,-0.16169 1.1316,-0.26922 0.36863,-0.17992 -0.73934,0.0865 -2.09612,-0.23544 -3.10091,-0.73586 -0.65349,-0.32546 -0.72836,-0.34019 -0.6106,-0.12016 0.18534,0.3463 1.12843,1.14244 1.70604,1.4402 0.89123,0.45942 1.88498,0.58819 2.85495,0.36991 z m -1.69896,-0.47109 c 0.12341,-0.0323 0.32536,-0.0323 0.44878,0 0.12341,0.0323 0.0224,0.0586 -0.22439,0.0586 -0.24684,0 -0.34781,-0.0265 -0.22439,-0.0586 z m 2.39382,-0.2096 0.40376,-0.16977 -0.33215,-0.15133 c -0.18268,-0.0833 -0.29938,-0.20438 -0.25931,-0.26923 0.0846,-0.13678 -0.62656,-0.68057 -0.7407,-0.56641 -0.042,0.042 -0.32083,-0.0215 -0.6196,-0.14097 -0.30876,-0.12356 -1.21036,-0.26892 -2.08895,-0.33681 -0.85015,-0.0657 -1.68998,-0.15231 -1.86628,-0.19245 -0.24904,-0.0567 -0.28669,-0.0386 -0.16874,0.0815 0.0835,0.085 0.372,0.17118 0.64112,0.1916 1.11126,0.0844 2.20462,0.20862 2.98964,0.33988 0.64664,0.1081 0.77597,0.16379 0.577,0.24834 -0.1958,0.0832 -0.16547,0.0949 0.12823,0.0495 0.21156,-0.0326 0.55777,0.0257 0.76934,0.12995 0.38282,0.18854 0.0942,0.17857 -0.37365,-0.0128 -0.1572,-0.0643 -0.21625,-0.0533 -0.16427,0.0309 0.0548,0.0888 -0.10963,0.0877 -0.507,-0.004 -0.46003,-0.10525 -0.53597,-0.15608 -0.34862,-0.2332 0.1334,-0.0549 -0.073,-0.0732 -0.4657,-0.0414 -0.52684,0.0427 -0.62414,0.0274 -0.38467,-0.0609 0.23086,-0.0851 0.0873,-0.10193 -0.51289,-0.0603 -0.5439,0.0377 -0.74436,0.0186 -0.57701,-0.0552 0.19808,-0.0873 0.0959,-0.12594 -0.44877,-0.16962 -0.38788,-0.0311 -0.72525,-0.0426 -0.74971,-0.0256 -0.0245,0.017 0.17922,0.14502 0.45263,0.28451 0.83384,0.4254 1.97578,0.69824 3.05386,0.72965 0.56419,0.0164 1.17004,0.0879 1.34635,0.15879 l 0.32057,0.1289 -0.44879,0.13125 c -0.24683,0.0721 -0.35442,0.13645 -0.23911,0.14281 0.11534,0.007 0.39136,-0.0649 0.61342,-0.1582 z m -2.32971,-0.55627 c 0.0882,-0.0356 0.23241,-0.0356 0.32055,0 0.0882,0.0356 0.016,0.0647 -0.16027,0.0647 -0.17631,0 -0.24844,-0.0291 -0.16028,-0.0647 z m -0.8014,-0.17153 c -0.16164,-0.0694 -0.18534,-0.11023 -0.0641,-0.11023 0.10584,0 0.30774,0.0496 0.44878,0.11023 0.16166,0.0694 0.18535,0.11023 0.0641,0.11023 -0.10584,0 -0.30774,-0.0496 -0.44879,-0.11023 z m 3.84414,-0.77349 c -0.11806,-0.19108 0.0662,-0.90883 0.21047,-0.81968 0.4042,0.24982 -0.40986,-1.53271 -1.25566,-2.74948 -0.31216,-0.44906 -0.54496,-0.8391 -0.51733,-0.86673 0.0758,-0.0758 1.47799,2.0485 1.72028,2.6063 0.15409,0.35472 0.22568,0.42497 0.263,0.25804 0.0634,-0.28346 -0.38628,-1.16608 -0.88132,-1.72991 -0.20368,-0.23198 -0.36793,-0.46305 -0.36499,-0.51349 0.009,-0.1588 0.90449,0.91341 1.15465,1.38286 0.13151,0.24683 0.24168,0.3591 0.24479,0.24949 0.0107,-0.38357 -0.73687,-1.3647 -1.59489,-2.09261 -0.47602,-0.40385 -0.89166,-0.7081 -0.92364,-0.67613 -0.0739,0.0739 0.36127,0.92927 0.91047,1.78979 0.53849,0.84371 1.10134,1.95371 1.09919,2.16771 -0.001,0.0905 -0.14061,-0.12396 -0.31044,-0.47658 -0.37891,-0.78666 -0.42505,-0.69405 -0.0686,0.1376 0.44298,1.03343 0.21573,0.83471 -0.29478,-0.25779 -0.28993,-0.62042 -0.3808,-0.90564 -0.22725,-0.71326 0.39507,0.49497 0.30795,0.15885 -0.13961,-0.53859 -0.40461,-0.63055 -0.64117,-0.76406 -0.37149,-0.20966 0.13914,0.286 0.13669,0.28824 -0.0543,0.0498 -0.11355,-0.14171 -0.16608,-0.35664 -0.12156,-0.4969 0.0565,-0.17804 0.0332,-0.21921 -0.0833,-0.1472 -0.10501,0.0649 -0.12974,0.0481 -0.0704,-0.0478 0.0502,-0.0813 0.008,-0.2662 -0.0929,-0.41092 -0.17715,-0.25291 -0.18764,-0.24523 -0.27091,0.19867 -0.0689,0.36763 -0.002,0.64341 0.3241,1.35286 0.2259,0.49011 0.48872,0.95582 0.58405,1.03494 0.26634,0.22104 0.2061,-0.0354 -0.12474,-0.53097 -0.32229,-0.48282 -0.73107,-1.44448 -0.72232,-1.69927 0.002,-0.0867 0.14018,0.16655 0.30488,0.56285 0.16471,0.3963 0.53907,1.12385 0.83192,1.61678 0.29284,0.49295 0.55459,1.00536 0.58165,1.13871 0.027,0.13335 0.0891,0.35785 0.13798,0.4989 0.0489,0.14104 -0.0341,0.0655 -0.1841,-0.16799 -0.1501,-0.23344 -0.24659,-0.467 -0.21445,-0.51901 0.0322,-0.052 -9.9e-4,-0.17838 -0.0734,-0.2808 -0.1075,-0.15181 -0.11854,-0.14477 -0.0597,0.0382 0.12786,0.39745 -0.016,0.24297 -0.59734,-0.64112 -0.60179,-0.9153 -0.9177,-1.64973 -1.11691,-2.59652 l -0.1214,-0.57701 0.0664,0.6858 c 0.0952,0.98165 0.35762,1.57126 1.3876,3.11713 0.6554,0.98364 0.9395,1.31578 1.01372,1.18505 0.0567,-0.0999 0.0668,-0.24029 0.0225,-0.31197 z m -1.79897,0.13898 c -0.19462,-0.19428 -1.60221,-0.521 -2.16827,-0.50328 -0.40978,0.0128 -0.34361,0.0388 0.31665,0.12426 0.45907,0.0593 1.06493,0.19231 1.34635,0.2953 0.63013,0.23063 0.65683,0.23504 0.50527,0.0838 z m 0.99158,-1.44485 c -0.0919,-0.092 -0.15173,-0.0995 -0.15173,-0.0192 0,0.17114 0.15164,0.32278 0.23722,0.23721 0.0364,-0.0364 -0.002,-0.13453 -0.0854,-0.21798 z m -0.85696,-5.19731 c 0,-0.54655 0.0399,-1.22453 0.0885,-1.50662 l 0.0885,-0.51289 -0.17482,0.51289 c -0.24236,0.71099 -0.25158,2.50036 -0.0129,2.50036 0.006,0 0.0107,-0.44719 0.0107,-0.99374 z m 2.61888,7.10847 c 0.17097,-0.18958 0.25752,-0.34686 0.19234,-0.34951 -0.0651,-0.002 0.11224,-0.20373 0.39437,-0.44687 0.28209,-0.24314 0.44416,-0.44292 0.36018,-0.44396 -0.084,-6.8e-4 -0.18671,0.0531 -0.22826,0.12034 -0.0415,0.0673 -0.26135,0.24665 -0.48842,0.39871 -0.22706,0.15205 -0.0205,-0.0837 0.45907,-0.52383 0.82881,-0.76073 1.29768,-1.46619 1.70004,-2.55791 0.0917,-0.24886 0.17085,-0.35314 0.17581,-0.23174 0.0145,0.35346 -0.55328,1.52226 -1.06062,2.18345 -0.53572,0.6982 -0.45549,0.80811 0.14038,0.19235 0.49002,-0.5064 0.87387,-1.3452 1.11079,-2.42733 0.0975,-0.44567 0.18252,-0.66607 0.18876,-0.48975 0.0322,0.9081 -0.62234,2.42701 -1.35055,3.13425 -0.25823,0.25079 -0.41468,0.45598 -0.34765,0.45598 0.26092,0 1.07514,-0.99902 1.40763,-1.72712 0.28768,-0.62995 0.36002,-1.00063 0.40864,-2.09411 l 0.0591,-1.32866 -1.07511,0.8185 c -0.59132,0.45018 -1.27497,1.08691 -1.51923,1.41494 -0.24425,0.32804 -0.46831,0.57222 -0.4979,0.54263 -0.1164,-0.1164 0.95389,-1.35531 1.50855,-1.74636 0.32311,-0.22779 0.81826,-0.61877 1.10036,-0.86882 l 0.51289,-0.45464 0.037,1.19724 c 0.064,2.06799 -0.57199,3.5043 -1.98907,4.49211 -0.40737,0.28396 -0.91378,0.6442 -1.12534,0.80055 l -0.38467,0.28426 z m 0.79868,-0.61512 c 0.20889,-0.14875 0.35006,-0.30017 0.31372,-0.33653 -0.0363,-0.0364 -0.24605,0.0853 -0.466,0.27044 -0.47919,0.40322 -0.38101,0.44581 0.15228,0.0661 z m -2.37814,-5.45791 c -0.10038,-0.31783 -0.3365,-2.64659 -0.27464,-2.70846 0.0272,-0.0272 0.0806,0.20107 0.11866,0.50727 0.0381,0.30617 0.12198,0.96059 0.18648,1.45426 0.11794,0.90264 0.10655,1.18102 -0.0305,0.74693 z m -0.46045,-3.19386 c 10e-4,-0.2057 0.0572,-0.46054 0.1246,-0.56632 0.0835,-0.13098 0.0975,-0.0287 0.044,0.32056 -0.0972,0.63382 -0.17119,0.74173 -0.16859,0.24576 z"
       id="path872" />
    <rect
       style="fill:none;fill-rule:evenodd;stroke:#ffffff;stroke-width:0.748055;stroke-linecap:round;stroke-linejoin:round;stroke-miterlimit:4;stroke-dasharray:none;stroke-opacity:1"
       id="rect848"
       width="89.63826"
       height="89.63826"
       x="149.02547"
       y="-3.9281363"
       transform="rotate(45)" />
    <rect
       style="fill:none;fill-rule:evenodd;stroke:#ffffff;stroke-width:0.841756;stroke-linecap:butt;stroke-linejoin:round;stroke-miterlimit:4;stroke-dasharray:0.841756, 2.52526999999999990;stroke-dashoffset:0.841756;stroke-opacity:1"
       id="rect848-9"
       width="84.804817"
       height="84.804817"
       x="151.45338"
       y="-0.99656159"
       transform="matrix(0.70806068,0.70615159,-0.70806068,0.70615159,0,0)" />
  </g>
</svg>
